<?xml version="1.0" encoding="utf-8"?>
<svg xmlns="http://www.w3.org/2000/svg" xmlns:xlink="http://www.w3.org/1999/xlink" width="600" height="400" viewBox="0 0 2400 1600">
<defs>
  <clipPath id="clip580">
    <rect x="0" y="0" width="2400" height="1600"/>
  </clipPath>
</defs>
<path clip-path="url(#clip580)" d="M0 1600 L2400 1600 L2400 0 L0 0  Z" fill="#ffffff" fill-rule="evenodd" fill-opacity="1"/>
<defs>
  <clipPath id="clip581">
    <rect x="235" y="818" width="2128" height="631"/>
  </clipPath>
</defs>
<path clip-path="url(#clip580)" d="M287.366 1423.18 L2352.76 1423.18 L2352.76 123.472 L287.366 123.472  Z" fill="#ffffff" fill-rule="evenodd" fill-opacity="1"/>
<defs>
  <clipPath id="clip582">
    <rect x="287" y="123" width="2066" height="1301"/>
  </clipPath>
</defs>
<polyline clip-path="url(#clip582)" style="stroke:#000000; stroke-linecap:round; stroke-linejoin:round; stroke-width:2; stroke-opacity:0.1; fill:none" points="306.055,1423.18 306.055,123.472 "/>
<polyline clip-path="url(#clip582)" style="stroke:#000000; stroke-linecap:round; stroke-linejoin:round; stroke-width:2; stroke-opacity:0.1; fill:none" points="703.705,1423.18 703.705,123.472 "/>
<polyline clip-path="url(#clip582)" style="stroke:#000000; stroke-linecap:round; stroke-linejoin:round; stroke-width:2; stroke-opacity:0.1; fill:none" points="1101.35,1423.18 1101.35,123.472 "/>
<polyline clip-path="url(#clip582)" style="stroke:#000000; stroke-linecap:round; stroke-linejoin:round; stroke-width:2; stroke-opacity:0.1; fill:none" points="1499,1423.18 1499,123.472 "/>
<polyline clip-path="url(#clip582)" style="stroke:#000000; stroke-linecap:round; stroke-linejoin:round; stroke-width:2; stroke-opacity:0.1; fill:none" points="1896.65,1423.18 1896.65,123.472 "/>
<polyline clip-path="url(#clip582)" style="stroke:#000000; stroke-linecap:round; stroke-linejoin:round; stroke-width:2; stroke-opacity:0.1; fill:none" points="2294.3,1423.18 2294.3,123.472 "/>
<polyline clip-path="url(#clip582)" style="stroke:#000000; stroke-linecap:round; stroke-linejoin:round; stroke-width:2; stroke-opacity:0.1; fill:none" points="287.366,1258 2352.76,1258 "/>
<polyline clip-path="url(#clip582)" style="stroke:#000000; stroke-linecap:round; stroke-linejoin:round; stroke-width:2; stroke-opacity:0.1; fill:none" points="287.366,1089.25 2352.76,1089.25 "/>
<polyline clip-path="url(#clip582)" style="stroke:#000000; stroke-linecap:round; stroke-linejoin:round; stroke-width:2; stroke-opacity:0.1; fill:none" points="287.366,920.499 2352.76,920.499 "/>
<polyline clip-path="url(#clip582)" style="stroke:#000000; stroke-linecap:round; stroke-linejoin:round; stroke-width:2; stroke-opacity:0.1; fill:none" points="287.366,751.749 2352.76,751.749 "/>
<polyline clip-path="url(#clip582)" style="stroke:#000000; stroke-linecap:round; stroke-linejoin:round; stroke-width:2; stroke-opacity:0.1; fill:none" points="287.366,582.999 2352.76,582.999 "/>
<polyline clip-path="url(#clip582)" style="stroke:#000000; stroke-linecap:round; stroke-linejoin:round; stroke-width:2; stroke-opacity:0.1; fill:none" points="287.366,414.249 2352.76,414.249 "/>
<polyline clip-path="url(#clip582)" style="stroke:#000000; stroke-linecap:round; stroke-linejoin:round; stroke-width:2; stroke-opacity:0.1; fill:none" points="287.366,245.499 2352.76,245.499 "/>
<polyline clip-path="url(#clip580)" style="stroke:#000000; stroke-linecap:round; stroke-linejoin:round; stroke-width:4; stroke-opacity:1; fill:none" points="287.366,1423.18 2352.76,1423.18 "/>
<polyline clip-path="url(#clip580)" style="stroke:#000000; stroke-linecap:round; stroke-linejoin:round; stroke-width:4; stroke-opacity:1; fill:none" points="306.055,1423.18 306.055,1404.28 "/>
<polyline clip-path="url(#clip580)" style="stroke:#000000; stroke-linecap:round; stroke-linejoin:round; stroke-width:4; stroke-opacity:1; fill:none" points="703.705,1423.18 703.705,1404.28 "/>
<polyline clip-path="url(#clip580)" style="stroke:#000000; stroke-linecap:round; stroke-linejoin:round; stroke-width:4; stroke-opacity:1; fill:none" points="1101.35,1423.18 1101.35,1404.28 "/>
<polyline clip-path="url(#clip580)" style="stroke:#000000; stroke-linecap:round; stroke-linejoin:round; stroke-width:4; stroke-opacity:1; fill:none" points="1499,1423.18 1499,1404.28 "/>
<polyline clip-path="url(#clip580)" style="stroke:#000000; stroke-linecap:round; stroke-linejoin:round; stroke-width:4; stroke-opacity:1; fill:none" points="1896.65,1423.18 1896.65,1404.28 "/>
<polyline clip-path="url(#clip580)" style="stroke:#000000; stroke-linecap:round; stroke-linejoin:round; stroke-width:4; stroke-opacity:1; fill:none" points="2294.3,1423.18 2294.3,1404.28 "/>
<path clip-path="url(#clip580)" d="M306.055 1454.1 Q302.444 1454.1 300.616 1457.66 Q298.81 1461.2 298.81 1468.33 Q298.81 1475.44 300.616 1479.01 Q302.444 1482.55 306.055 1482.55 Q309.69 1482.55 311.495 1479.01 Q313.324 1475.44 313.324 1468.33 Q313.324 1461.2 311.495 1457.66 Q309.69 1454.1 306.055 1454.1 M306.055 1450.39 Q311.866 1450.39 314.921 1455 Q318 1459.58 318 1468.33 Q318 1477.06 314.921 1481.67 Q311.866 1486.25 306.055 1486.25 Q300.245 1486.25 297.167 1481.67 Q294.111 1477.06 294.111 1468.33 Q294.111 1459.58 297.167 1455 Q300.245 1450.39 306.055 1450.39 Z" fill="#000000" fill-rule="nonzero" fill-opacity="1" /><path clip-path="url(#clip580)" d="M678.392 1481.64 L686.031 1481.64 L686.031 1455.28 L677.721 1456.95 L677.721 1452.69 L685.985 1451.02 L690.661 1451.02 L690.661 1481.64 L698.3 1481.64 L698.3 1485.58 L678.392 1485.58 L678.392 1481.64 Z" fill="#000000" fill-rule="nonzero" fill-opacity="1" /><path clip-path="url(#clip580)" d="M717.744 1454.1 Q714.133 1454.1 712.304 1457.66 Q710.499 1461.2 710.499 1468.33 Q710.499 1475.44 712.304 1479.01 Q714.133 1482.55 717.744 1482.55 Q721.378 1482.55 723.184 1479.01 Q725.012 1475.44 725.012 1468.33 Q725.012 1461.2 723.184 1457.66 Q721.378 1454.1 717.744 1454.1 M717.744 1450.39 Q723.554 1450.39 726.61 1455 Q729.688 1459.58 729.688 1468.33 Q729.688 1477.06 726.61 1481.67 Q723.554 1486.25 717.744 1486.25 Q711.934 1486.25 708.855 1481.67 Q705.8 1477.06 705.8 1468.33 Q705.8 1459.58 708.855 1455 Q711.934 1450.39 717.744 1450.39 Z" fill="#000000" fill-rule="nonzero" fill-opacity="1" /><path clip-path="url(#clip580)" d="M1080.13 1481.64 L1096.45 1481.64 L1096.45 1485.58 L1074.5 1485.58 L1074.5 1481.64 Q1077.16 1478.89 1081.75 1474.26 Q1086.35 1469.61 1087.53 1468.27 Q1089.78 1465.74 1090.66 1464.01 Q1091.56 1462.25 1091.56 1460.56 Q1091.56 1457.8 1089.62 1456.07 Q1087.7 1454.33 1084.59 1454.33 Q1082.4 1454.33 1079.94 1455.09 Q1077.51 1455.86 1074.73 1457.41 L1074.73 1452.69 Q1077.56 1451.55 1080.01 1450.97 Q1082.47 1450.39 1084.5 1450.39 Q1089.87 1450.39 1093.07 1453.08 Q1096.26 1455.77 1096.26 1460.26 Q1096.26 1462.39 1095.45 1464.31 Q1094.66 1466.2 1092.56 1468.8 Q1091.98 1469.47 1088.88 1472.69 Q1085.78 1475.88 1080.13 1481.64 Z" fill="#000000" fill-rule="nonzero" fill-opacity="1" /><path clip-path="url(#clip580)" d="M1116.26 1454.1 Q1112.65 1454.1 1110.82 1457.66 Q1109.02 1461.2 1109.02 1468.33 Q1109.02 1475.44 1110.82 1479.01 Q1112.65 1482.55 1116.26 1482.55 Q1119.9 1482.55 1121.7 1479.01 Q1123.53 1475.44 1123.53 1468.33 Q1123.53 1461.2 1121.7 1457.66 Q1119.9 1454.1 1116.26 1454.1 M1116.26 1450.39 Q1122.07 1450.39 1125.13 1455 Q1128.21 1459.58 1128.21 1468.33 Q1128.21 1477.06 1125.13 1481.67 Q1122.07 1486.25 1116.26 1486.25 Q1110.45 1486.25 1107.37 1481.67 Q1104.32 1477.06 1104.32 1468.33 Q1104.32 1459.58 1107.37 1455 Q1110.45 1450.39 1116.26 1450.39 Z" fill="#000000" fill-rule="nonzero" fill-opacity="1" /><path clip-path="url(#clip580)" d="M1487.85 1466.95 Q1491.2 1467.66 1493.08 1469.93 Q1494.98 1472.2 1494.98 1475.53 Q1494.98 1480.65 1491.46 1483.45 Q1487.94 1486.25 1481.46 1486.25 Q1479.28 1486.25 1476.97 1485.81 Q1474.67 1485.39 1472.22 1484.54 L1472.22 1480.02 Q1474.17 1481.16 1476.48 1481.74 Q1478.79 1482.32 1481.32 1482.32 Q1485.72 1482.32 1488.01 1480.58 Q1490.32 1478.84 1490.32 1475.53 Q1490.32 1472.48 1488.17 1470.77 Q1486.04 1469.03 1482.22 1469.03 L1478.19 1469.03 L1478.19 1465.19 L1482.41 1465.19 Q1485.85 1465.19 1487.68 1463.82 Q1489.51 1462.43 1489.51 1459.84 Q1489.51 1457.18 1487.61 1455.77 Q1485.74 1454.33 1482.22 1454.33 Q1480.3 1454.33 1478.1 1454.75 Q1475.9 1455.16 1473.26 1456.04 L1473.26 1451.88 Q1475.92 1451.14 1478.24 1450.77 Q1480.58 1450.39 1482.64 1450.39 Q1487.96 1450.39 1491.06 1452.83 Q1494.17 1455.23 1494.17 1459.35 Q1494.17 1462.22 1492.52 1464.21 Q1490.88 1466.18 1487.85 1466.95 Z" fill="#000000" fill-rule="nonzero" fill-opacity="1" /><path clip-path="url(#clip580)" d="M1513.84 1454.1 Q1510.23 1454.1 1508.4 1457.66 Q1506.6 1461.2 1506.6 1468.33 Q1506.6 1475.44 1508.4 1479.01 Q1510.23 1482.55 1513.84 1482.55 Q1517.48 1482.55 1519.28 1479.01 Q1521.11 1475.44 1521.11 1468.33 Q1521.11 1461.2 1519.28 1457.66 Q1517.48 1454.1 1513.84 1454.1 M1513.84 1450.39 Q1519.65 1450.39 1522.71 1455 Q1525.79 1459.58 1525.79 1468.33 Q1525.79 1477.06 1522.71 1481.67 Q1519.65 1486.25 1513.84 1486.25 Q1508.03 1486.25 1504.95 1481.67 Q1501.9 1477.06 1501.9 1468.33 Q1501.9 1459.58 1504.95 1455 Q1508.03 1450.39 1513.84 1450.39 Z" fill="#000000" fill-rule="nonzero" fill-opacity="1" /><path clip-path="url(#clip580)" d="M1884.82 1455.09 L1873.02 1473.54 L1884.82 1473.54 L1884.82 1455.09 M1883.6 1451.02 L1889.48 1451.02 L1889.48 1473.54 L1894.41 1473.54 L1894.41 1477.43 L1889.48 1477.43 L1889.48 1485.58 L1884.82 1485.58 L1884.82 1477.43 L1869.22 1477.43 L1869.22 1472.92 L1883.6 1451.02 Z" fill="#000000" fill-rule="nonzero" fill-opacity="1" /><path clip-path="url(#clip580)" d="M1912.14 1454.1 Q1908.53 1454.1 1906.7 1457.66 Q1904.89 1461.2 1904.89 1468.33 Q1904.89 1475.44 1906.7 1479.01 Q1908.53 1482.55 1912.14 1482.55 Q1915.77 1482.55 1917.58 1479.01 Q1919.41 1475.44 1919.41 1468.33 Q1919.41 1461.2 1917.58 1457.66 Q1915.77 1454.1 1912.14 1454.1 M1912.14 1450.39 Q1917.95 1450.39 1921 1455 Q1924.08 1459.58 1924.08 1468.33 Q1924.08 1477.06 1921 1481.67 Q1917.95 1486.25 1912.14 1486.25 Q1906.33 1486.25 1903.25 1481.67 Q1900.19 1477.06 1900.19 1468.33 Q1900.19 1459.58 1903.25 1455 Q1906.33 1450.39 1912.14 1450.39 Z" fill="#000000" fill-rule="nonzero" fill-opacity="1" /><path clip-path="url(#clip580)" d="M2269 1451.02 L2287.36 1451.02 L2287.36 1454.96 L2273.28 1454.96 L2273.28 1463.43 Q2274.3 1463.08 2275.32 1462.92 Q2276.34 1462.73 2277.36 1462.73 Q2283.14 1462.73 2286.52 1465.9 Q2289.9 1469.08 2289.9 1474.49 Q2289.9 1480.07 2286.43 1483.17 Q2282.96 1486.25 2276.64 1486.25 Q2274.46 1486.25 2272.2 1485.88 Q2269.95 1485.51 2267.54 1484.77 L2267.54 1480.07 Q2269.63 1481.2 2271.85 1481.76 Q2274.07 1482.32 2276.55 1482.32 Q2280.55 1482.32 2282.89 1480.21 Q2285.23 1478.1 2285.23 1474.49 Q2285.23 1470.88 2282.89 1468.77 Q2280.55 1466.67 2276.55 1466.67 Q2274.67 1466.67 2272.8 1467.08 Q2270.95 1467.5 2269 1468.38 L2269 1451.02 Z" fill="#000000" fill-rule="nonzero" fill-opacity="1" /><path clip-path="url(#clip580)" d="M2309.12 1454.1 Q2305.51 1454.1 2303.68 1457.66 Q2301.87 1461.2 2301.87 1468.33 Q2301.87 1475.44 2303.68 1479.01 Q2305.51 1482.55 2309.12 1482.55 Q2312.75 1482.55 2314.56 1479.01 Q2316.38 1475.44 2316.38 1468.33 Q2316.38 1461.2 2314.56 1457.66 Q2312.75 1454.1 2309.12 1454.1 M2309.12 1450.39 Q2314.93 1450.39 2317.98 1455 Q2321.06 1459.58 2321.06 1468.33 Q2321.06 1477.06 2317.98 1481.67 Q2314.93 1486.25 2309.12 1486.25 Q2303.31 1486.25 2300.23 1481.67 Q2297.17 1477.06 2297.17 1468.33 Q2297.17 1459.58 2300.23 1455 Q2303.31 1450.39 2309.12 1450.39 Z" fill="#000000" fill-rule="nonzero" fill-opacity="1" /><path clip-path="url(#clip580)" d="M1241.94 1520.52 L1282.14 1520.52 L1282.14 1525.93 L1265.27 1525.93 L1265.27 1568.04 L1258.81 1568.04 L1258.81 1525.93 L1241.94 1525.93 L1241.94 1520.52 Z" fill="#000000" fill-rule="nonzero" fill-opacity="1" /><path clip-path="url(#clip580)" d="M1286.08 1532.4 L1291.94 1532.4 L1291.94 1568.04 L1286.08 1568.04 L1286.08 1532.4 M1286.08 1518.52 L1291.94 1518.52 L1291.94 1525.93 L1286.08 1525.93 L1286.08 1518.52 Z" fill="#000000" fill-rule="nonzero" fill-opacity="1" /><path clip-path="url(#clip580)" d="M1331.95 1539.24 Q1334.15 1535.29 1337.2 1533.41 Q1340.26 1531.54 1344.39 1531.54 Q1349.96 1531.54 1352.99 1535.45 Q1356.01 1539.33 1356.01 1546.53 L1356.01 1568.04 L1350.12 1568.04 L1350.12 1546.72 Q1350.12 1541.59 1348.31 1539.11 Q1346.49 1536.63 1342.77 1536.63 Q1338.22 1536.63 1335.58 1539.65 Q1332.94 1542.68 1332.94 1547.9 L1332.94 1568.04 L1327.05 1568.04 L1327.05 1546.72 Q1327.05 1541.56 1325.23 1539.11 Q1323.42 1536.63 1319.63 1536.63 Q1315.14 1536.63 1312.5 1539.68 Q1309.86 1542.71 1309.86 1547.9 L1309.86 1568.04 L1303.97 1568.04 L1303.97 1532.4 L1309.86 1532.4 L1309.86 1537.93 Q1311.87 1534.66 1314.67 1533.1 Q1317.47 1531.54 1321.32 1531.54 Q1325.2 1531.54 1327.91 1533.51 Q1330.64 1535.48 1331.95 1539.24 Z" fill="#000000" fill-rule="nonzero" fill-opacity="1" /><path clip-path="url(#clip580)" d="M1398.18 1548.76 L1398.18 1551.62 L1371.26 1551.62 Q1371.64 1557.67 1374.89 1560.85 Q1378.16 1564 1383.99 1564 Q1387.36 1564 1390.51 1563.17 Q1393.7 1562.35 1396.82 1560.69 L1396.82 1566.23 Q1393.66 1567.57 1390.35 1568.27 Q1387.04 1568.97 1383.64 1568.97 Q1375.11 1568.97 1370.11 1564 Q1365.15 1559.04 1365.15 1550.57 Q1365.15 1541.82 1369.86 1536.69 Q1374.6 1531.54 1382.62 1531.54 Q1389.81 1531.54 1393.98 1536.18 Q1398.18 1540.8 1398.18 1548.76 M1392.33 1547.04 Q1392.26 1542.23 1389.62 1539.37 Q1387.01 1536.5 1382.68 1536.5 Q1377.78 1536.5 1374.82 1539.27 Q1371.89 1542.04 1371.45 1547.07 L1392.33 1547.04 Z" fill="#000000" fill-rule="nonzero" fill-opacity="1" /><polyline clip-path="url(#clip580)" style="stroke:#000000; stroke-linecap:round; stroke-linejoin:round; stroke-width:4; stroke-opacity:1; fill:none" points="287.366,1423.18 287.366,123.472 "/>
<polyline clip-path="url(#clip580)" style="stroke:#000000; stroke-linecap:round; stroke-linejoin:round; stroke-width:4; stroke-opacity:1; fill:none" points="287.366,1258 306.264,1258 "/>
<polyline clip-path="url(#clip580)" style="stroke:#000000; stroke-linecap:round; stroke-linejoin:round; stroke-width:4; stroke-opacity:1; fill:none" points="287.366,1089.25 306.264,1089.25 "/>
<polyline clip-path="url(#clip580)" style="stroke:#000000; stroke-linecap:round; stroke-linejoin:round; stroke-width:4; stroke-opacity:1; fill:none" points="287.366,920.499 306.264,920.499 "/>
<polyline clip-path="url(#clip580)" style="stroke:#000000; stroke-linecap:round; stroke-linejoin:round; stroke-width:4; stroke-opacity:1; fill:none" points="287.366,751.749 306.264,751.749 "/>
<polyline clip-path="url(#clip580)" style="stroke:#000000; stroke-linecap:round; stroke-linejoin:round; stroke-width:4; stroke-opacity:1; fill:none" points="287.366,582.999 306.264,582.999 "/>
<polyline clip-path="url(#clip580)" style="stroke:#000000; stroke-linecap:round; stroke-linejoin:round; stroke-width:4; stroke-opacity:1; fill:none" points="287.366,414.249 306.264,414.249 "/>
<polyline clip-path="url(#clip580)" style="stroke:#000000; stroke-linecap:round; stroke-linejoin:round; stroke-width:4; stroke-opacity:1; fill:none" points="287.366,245.499 306.264,245.499 "/>
<path clip-path="url(#clip580)" d="M115.256 1258.45 L144.931 1258.45 L144.931 1262.38 L115.256 1262.38 L115.256 1258.45 Z" fill="#000000" fill-rule="nonzero" fill-opacity="1" /><path clip-path="url(#clip580)" d="M165.024 1243.8 Q161.413 1243.8 159.584 1247.36 Q157.778 1250.9 157.778 1258.03 Q157.778 1265.14 159.584 1268.7 Q161.413 1272.25 165.024 1272.25 Q168.658 1272.25 170.464 1268.7 Q172.292 1265.14 172.292 1258.03 Q172.292 1250.9 170.464 1247.36 Q168.658 1243.8 165.024 1243.8 M165.024 1240.09 Q170.834 1240.09 173.889 1244.7 Q176.968 1249.28 176.968 1258.03 Q176.968 1266.76 173.889 1271.37 Q170.834 1275.95 165.024 1275.95 Q159.214 1275.95 156.135 1271.37 Q153.079 1266.76 153.079 1258.03 Q153.079 1249.28 156.135 1244.7 Q159.214 1240.09 165.024 1240.09 Z" fill="#000000" fill-rule="nonzero" fill-opacity="1" /><path clip-path="url(#clip580)" d="M185.186 1269.4 L190.07 1269.4 L190.07 1275.28 L185.186 1275.28 L185.186 1269.4 Z" fill="#000000" fill-rule="nonzero" fill-opacity="1" /><path clip-path="url(#clip580)" d="M199.075 1240.72 L221.297 1240.72 L221.297 1242.71 L208.75 1275.28 L203.866 1275.28 L215.672 1244.65 L199.075 1244.65 L199.075 1240.72 Z" fill="#000000" fill-rule="nonzero" fill-opacity="1" /><path clip-path="url(#clip580)" d="M230.463 1240.72 L248.82 1240.72 L248.82 1244.65 L234.746 1244.65 L234.746 1253.13 Q235.764 1252.78 236.783 1252.62 Q237.801 1252.43 238.82 1252.43 Q244.607 1252.43 247.986 1255.6 Q251.366 1258.77 251.366 1264.19 Q251.366 1269.77 247.894 1272.87 Q244.421 1275.95 238.102 1275.95 Q235.926 1275.95 233.658 1275.58 Q231.412 1275.21 229.005 1274.47 L229.005 1269.77 Q231.088 1270.9 233.31 1271.46 Q235.533 1272.01 238.009 1272.01 Q242.014 1272.01 244.352 1269.91 Q246.69 1267.8 246.69 1264.19 Q246.69 1260.58 244.352 1258.47 Q242.014 1256.37 238.009 1256.37 Q236.135 1256.37 234.26 1256.78 Q232.408 1257.2 230.463 1258.08 L230.463 1240.72 Z" fill="#000000" fill-rule="nonzero" fill-opacity="1" /><path clip-path="url(#clip580)" d="M114.26 1089.7 L143.936 1089.7 L143.936 1093.63 L114.26 1093.63 L114.26 1089.7 Z" fill="#000000" fill-rule="nonzero" fill-opacity="1" /><path clip-path="url(#clip580)" d="M164.028 1075.05 Q160.417 1075.05 158.589 1078.61 Q156.783 1082.15 156.783 1089.28 Q156.783 1096.39 158.589 1099.95 Q160.417 1103.5 164.028 1103.5 Q167.663 1103.5 169.468 1099.95 Q171.297 1096.39 171.297 1089.28 Q171.297 1082.15 169.468 1078.61 Q167.663 1075.05 164.028 1075.05 M164.028 1071.34 Q169.839 1071.34 172.894 1075.95 Q175.973 1080.53 175.973 1089.28 Q175.973 1098.01 172.894 1102.62 Q169.839 1107.2 164.028 1107.2 Q158.218 1107.2 155.14 1102.62 Q152.084 1098.01 152.084 1089.28 Q152.084 1080.53 155.14 1075.95 Q158.218 1071.34 164.028 1071.34 Z" fill="#000000" fill-rule="nonzero" fill-opacity="1" /><path clip-path="url(#clip580)" d="M184.19 1100.65 L189.075 1100.65 L189.075 1106.53 L184.19 1106.53 L184.19 1100.65 Z" fill="#000000" fill-rule="nonzero" fill-opacity="1" /><path clip-path="url(#clip580)" d="M199.306 1071.97 L217.662 1071.97 L217.662 1075.9 L203.588 1075.9 L203.588 1084.38 Q204.607 1084.03 205.625 1083.87 Q206.644 1083.68 207.662 1083.68 Q213.449 1083.68 216.829 1086.85 Q220.209 1090.02 220.209 1095.44 Q220.209 1101.02 216.736 1104.12 Q213.264 1107.2 206.945 1107.2 Q204.769 1107.2 202.5 1106.83 Q200.255 1106.46 197.848 1105.72 L197.848 1101.02 Q199.931 1102.15 202.153 1102.71 Q204.375 1103.26 206.852 1103.26 Q210.857 1103.26 213.195 1101.16 Q215.533 1099.05 215.533 1095.44 Q215.533 1091.83 213.195 1089.72 Q210.857 1087.62 206.852 1087.62 Q204.977 1087.62 203.102 1088.03 Q201.25 1088.45 199.306 1089.33 L199.306 1071.97 Z" fill="#000000" fill-rule="nonzero" fill-opacity="1" /><path clip-path="url(#clip580)" d="M239.422 1075.05 Q235.81 1075.05 233.982 1078.61 Q232.176 1082.15 232.176 1089.28 Q232.176 1096.39 233.982 1099.95 Q235.81 1103.5 239.422 1103.5 Q243.056 1103.5 244.861 1099.95 Q246.69 1096.39 246.69 1089.28 Q246.69 1082.15 244.861 1078.61 Q243.056 1075.05 239.422 1075.05 M239.422 1071.34 Q245.232 1071.34 248.287 1075.95 Q251.366 1080.53 251.366 1089.28 Q251.366 1098.01 248.287 1102.62 Q245.232 1107.2 239.422 1107.2 Q233.611 1107.2 230.533 1102.62 Q227.477 1098.01 227.477 1089.28 Q227.477 1080.53 230.533 1075.95 Q233.611 1071.34 239.422 1071.34 Z" fill="#000000" fill-rule="nonzero" fill-opacity="1" /><path clip-path="url(#clip580)" d="M115.256 920.95 L144.931 920.95 L144.931 924.885 L115.256 924.885 L115.256 920.95 Z" fill="#000000" fill-rule="nonzero" fill-opacity="1" /><path clip-path="url(#clip580)" d="M165.024 906.297 Q161.413 906.297 159.584 909.862 Q157.778 913.404 157.778 920.533 Q157.778 927.64 159.584 931.205 Q161.413 934.746 165.024 934.746 Q168.658 934.746 170.464 931.205 Q172.292 927.64 172.292 920.533 Q172.292 913.404 170.464 909.862 Q168.658 906.297 165.024 906.297 M165.024 902.594 Q170.834 902.594 173.889 907.2 Q176.968 911.783 176.968 920.533 Q176.968 929.26 173.889 933.867 Q170.834 938.45 165.024 938.45 Q159.214 938.45 156.135 933.867 Q153.079 929.26 153.079 920.533 Q153.079 911.783 156.135 907.2 Q159.214 902.594 165.024 902.594 Z" fill="#000000" fill-rule="nonzero" fill-opacity="1" /><path clip-path="url(#clip580)" d="M185.186 931.899 L190.07 931.899 L190.07 937.779 L185.186 937.779 L185.186 931.899 Z" fill="#000000" fill-rule="nonzero" fill-opacity="1" /><path clip-path="url(#clip580)" d="M204.283 933.843 L220.602 933.843 L220.602 937.779 L198.658 937.779 L198.658 933.843 Q201.32 931.089 205.903 926.459 Q210.51 921.806 211.69 920.464 Q213.936 917.941 214.815 916.205 Q215.718 914.445 215.718 912.756 Q215.718 910.001 213.774 908.265 Q211.852 906.529 208.75 906.529 Q206.551 906.529 204.098 907.293 Q201.667 908.056 198.889 909.607 L198.889 904.885 Q201.713 903.751 204.167 903.172 Q206.621 902.594 208.658 902.594 Q214.028 902.594 217.223 905.279 Q220.417 907.964 220.417 912.455 Q220.417 914.584 219.607 916.506 Q218.82 918.404 216.713 920.996 Q216.135 921.668 213.033 924.885 Q209.931 928.08 204.283 933.843 Z" fill="#000000" fill-rule="nonzero" fill-opacity="1" /><path clip-path="url(#clip580)" d="M230.463 903.219 L248.82 903.219 L248.82 907.154 L234.746 907.154 L234.746 915.626 Q235.764 915.279 236.783 915.117 Q237.801 914.931 238.82 914.931 Q244.607 914.931 247.986 918.103 Q251.366 921.274 251.366 926.691 Q251.366 932.269 247.894 935.371 Q244.421 938.45 238.102 938.45 Q235.926 938.45 233.658 938.079 Q231.412 937.709 229.005 936.968 L229.005 932.269 Q231.088 933.404 233.31 933.959 Q235.533 934.515 238.009 934.515 Q242.014 934.515 244.352 932.408 Q246.69 930.302 246.69 926.691 Q246.69 923.08 244.352 920.973 Q242.014 918.867 238.009 918.867 Q236.135 918.867 234.26 919.283 Q232.408 919.7 230.463 920.58 L230.463 903.219 Z" fill="#000000" fill-rule="nonzero" fill-opacity="1" /><path clip-path="url(#clip580)" d="M164.028 737.547 Q160.417 737.547 158.589 741.112 Q156.783 744.654 156.783 751.783 Q156.783 758.89 158.589 762.455 Q160.417 765.996 164.028 765.996 Q167.663 765.996 169.468 762.455 Q171.297 758.89 171.297 751.783 Q171.297 744.654 169.468 741.112 Q167.663 737.547 164.028 737.547 M164.028 733.844 Q169.839 733.844 172.894 738.45 Q175.973 743.034 175.973 751.783 Q175.973 760.51 172.894 765.117 Q169.839 769.7 164.028 769.7 Q158.218 769.7 155.14 765.117 Q152.084 760.51 152.084 751.783 Q152.084 743.034 155.14 738.45 Q158.218 733.844 164.028 733.844 Z" fill="#000000" fill-rule="nonzero" fill-opacity="1" /><path clip-path="url(#clip580)" d="M184.19 763.149 L189.075 763.149 L189.075 769.029 L184.19 769.029 L184.19 763.149 Z" fill="#000000" fill-rule="nonzero" fill-opacity="1" /><path clip-path="url(#clip580)" d="M209.26 737.547 Q205.649 737.547 203.82 741.112 Q202.014 744.654 202.014 751.783 Q202.014 758.89 203.82 762.455 Q205.649 765.996 209.26 765.996 Q212.894 765.996 214.699 762.455 Q216.528 758.89 216.528 751.783 Q216.528 744.654 214.699 741.112 Q212.894 737.547 209.26 737.547 M209.26 733.844 Q215.07 733.844 218.125 738.45 Q221.204 743.034 221.204 751.783 Q221.204 760.51 218.125 765.117 Q215.07 769.7 209.26 769.7 Q203.449 769.7 200.371 765.117 Q197.315 760.51 197.315 751.783 Q197.315 743.034 200.371 738.45 Q203.449 733.844 209.26 733.844 Z" fill="#000000" fill-rule="nonzero" fill-opacity="1" /><path clip-path="url(#clip580)" d="M239.422 737.547 Q235.81 737.547 233.982 741.112 Q232.176 744.654 232.176 751.783 Q232.176 758.89 233.982 762.455 Q235.81 765.996 239.422 765.996 Q243.056 765.996 244.861 762.455 Q246.69 758.89 246.69 751.783 Q246.69 744.654 244.861 741.112 Q243.056 737.547 239.422 737.547 M239.422 733.844 Q245.232 733.844 248.287 738.45 Q251.366 743.034 251.366 751.783 Q251.366 760.51 248.287 765.117 Q245.232 769.7 239.422 769.7 Q233.611 769.7 230.533 765.117 Q227.477 760.51 227.477 751.783 Q227.477 743.034 230.533 738.45 Q233.611 733.844 239.422 733.844 Z" fill="#000000" fill-rule="nonzero" fill-opacity="1" /><path clip-path="url(#clip580)" d="M165.024 568.798 Q161.413 568.798 159.584 572.362 Q157.778 575.904 157.778 583.034 Q157.778 590.14 159.584 593.705 Q161.413 597.247 165.024 597.247 Q168.658 597.247 170.464 593.705 Q172.292 590.14 172.292 583.034 Q172.292 575.904 170.464 572.362 Q168.658 568.798 165.024 568.798 M165.024 565.094 Q170.834 565.094 173.889 569.7 Q176.968 574.284 176.968 583.034 Q176.968 591.76 173.889 596.367 Q170.834 600.95 165.024 600.95 Q159.214 600.95 156.135 596.367 Q153.079 591.76 153.079 583.034 Q153.079 574.284 156.135 569.7 Q159.214 565.094 165.024 565.094 Z" fill="#000000" fill-rule="nonzero" fill-opacity="1" /><path clip-path="url(#clip580)" d="M185.186 594.399 L190.07 594.399 L190.07 600.279 L185.186 600.279 L185.186 594.399 Z" fill="#000000" fill-rule="nonzero" fill-opacity="1" /><path clip-path="url(#clip580)" d="M204.283 596.344 L220.602 596.344 L220.602 600.279 L198.658 600.279 L198.658 596.344 Q201.32 593.589 205.903 588.96 Q210.51 584.307 211.69 582.964 Q213.936 580.441 214.815 578.705 Q215.718 576.946 215.718 575.256 Q215.718 572.501 213.774 570.765 Q211.852 569.029 208.75 569.029 Q206.551 569.029 204.098 569.793 Q201.667 570.557 198.889 572.108 L198.889 567.386 Q201.713 566.251 204.167 565.673 Q206.621 565.094 208.658 565.094 Q214.028 565.094 217.223 567.779 Q220.417 570.464 220.417 574.955 Q220.417 577.085 219.607 579.006 Q218.82 580.904 216.713 583.497 Q216.135 584.168 213.033 587.386 Q209.931 590.58 204.283 596.344 Z" fill="#000000" fill-rule="nonzero" fill-opacity="1" /><path clip-path="url(#clip580)" d="M230.463 565.719 L248.82 565.719 L248.82 569.654 L234.746 569.654 L234.746 578.126 Q235.764 577.779 236.783 577.617 Q237.801 577.432 238.82 577.432 Q244.607 577.432 247.986 580.603 Q251.366 583.774 251.366 589.191 Q251.366 594.77 247.894 597.872 Q244.421 600.95 238.102 600.95 Q235.926 600.95 233.658 600.58 Q231.412 600.21 229.005 599.469 L229.005 594.77 Q231.088 595.904 233.31 596.46 Q235.533 597.015 238.009 597.015 Q242.014 597.015 244.352 594.909 Q246.69 592.802 246.69 589.191 Q246.69 585.58 244.352 583.474 Q242.014 581.367 238.009 581.367 Q236.135 581.367 234.26 581.784 Q232.408 582.2 230.463 583.08 L230.463 565.719 Z" fill="#000000" fill-rule="nonzero" fill-opacity="1" /><path clip-path="url(#clip580)" d="M164.028 400.048 Q160.417 400.048 158.589 403.613 Q156.783 407.154 156.783 414.284 Q156.783 421.39 158.589 424.955 Q160.417 428.497 164.028 428.497 Q167.663 428.497 169.468 424.955 Q171.297 421.39 171.297 414.284 Q171.297 407.154 169.468 403.613 Q167.663 400.048 164.028 400.048 M164.028 396.344 Q169.839 396.344 172.894 400.951 Q175.973 405.534 175.973 414.284 Q175.973 423.011 172.894 427.617 Q169.839 432.2 164.028 432.2 Q158.218 432.2 155.14 427.617 Q152.084 423.011 152.084 414.284 Q152.084 405.534 155.14 400.951 Q158.218 396.344 164.028 396.344 Z" fill="#000000" fill-rule="nonzero" fill-opacity="1" /><path clip-path="url(#clip580)" d="M184.19 425.65 L189.075 425.65 L189.075 431.529 L184.19 431.529 L184.19 425.65 Z" fill="#000000" fill-rule="nonzero" fill-opacity="1" /><path clip-path="url(#clip580)" d="M199.306 396.969 L217.662 396.969 L217.662 400.904 L203.588 400.904 L203.588 409.377 Q204.607 409.029 205.625 408.867 Q206.644 408.682 207.662 408.682 Q213.449 408.682 216.829 411.853 Q220.209 415.025 220.209 420.441 Q220.209 426.02 216.736 429.122 Q213.264 432.2 206.945 432.2 Q204.769 432.2 202.5 431.83 Q200.255 431.46 197.848 430.719 L197.848 426.02 Q199.931 427.154 202.153 427.71 Q204.375 428.265 206.852 428.265 Q210.857 428.265 213.195 426.159 Q215.533 424.052 215.533 420.441 Q215.533 416.83 213.195 414.724 Q210.857 412.617 206.852 412.617 Q204.977 412.617 203.102 413.034 Q201.25 413.451 199.306 414.33 L199.306 396.969 Z" fill="#000000" fill-rule="nonzero" fill-opacity="1" /><path clip-path="url(#clip580)" d="M239.422 400.048 Q235.81 400.048 233.982 403.613 Q232.176 407.154 232.176 414.284 Q232.176 421.39 233.982 424.955 Q235.81 428.497 239.422 428.497 Q243.056 428.497 244.861 424.955 Q246.69 421.39 246.69 414.284 Q246.69 407.154 244.861 403.613 Q243.056 400.048 239.422 400.048 M239.422 396.344 Q245.232 396.344 248.287 400.951 Q251.366 405.534 251.366 414.284 Q251.366 423.011 248.287 427.617 Q245.232 432.2 239.422 432.2 Q233.611 432.2 230.533 427.617 Q227.477 423.011 227.477 414.284 Q227.477 405.534 230.533 400.951 Q233.611 396.344 239.422 396.344 Z" fill="#000000" fill-rule="nonzero" fill-opacity="1" /><path clip-path="url(#clip580)" d="M165.024 231.298 Q161.413 231.298 159.584 234.863 Q157.778 238.405 157.778 245.534 Q157.778 252.641 159.584 256.205 Q161.413 259.747 165.024 259.747 Q168.658 259.747 170.464 256.205 Q172.292 252.641 172.292 245.534 Q172.292 238.405 170.464 234.863 Q168.658 231.298 165.024 231.298 M165.024 227.594 Q170.834 227.594 173.889 232.201 Q176.968 236.784 176.968 245.534 Q176.968 254.261 173.889 258.867 Q170.834 263.451 165.024 263.451 Q159.214 263.451 156.135 258.867 Q153.079 254.261 153.079 245.534 Q153.079 236.784 156.135 232.201 Q159.214 227.594 165.024 227.594 Z" fill="#000000" fill-rule="nonzero" fill-opacity="1" /><path clip-path="url(#clip580)" d="M185.186 256.9 L190.07 256.9 L190.07 262.779 L185.186 262.779 L185.186 256.9 Z" fill="#000000" fill-rule="nonzero" fill-opacity="1" /><path clip-path="url(#clip580)" d="M199.075 228.219 L221.297 228.219 L221.297 230.21 L208.75 262.779 L203.866 262.779 L215.672 232.155 L199.075 232.155 L199.075 228.219 Z" fill="#000000" fill-rule="nonzero" fill-opacity="1" /><path clip-path="url(#clip580)" d="M230.463 228.219 L248.82 228.219 L248.82 232.155 L234.746 232.155 L234.746 240.627 Q235.764 240.28 236.783 240.117 Q237.801 239.932 238.82 239.932 Q244.607 239.932 247.986 243.104 Q251.366 246.275 251.366 251.691 Q251.366 257.27 247.894 260.372 Q244.421 263.451 238.102 263.451 Q235.926 263.451 233.658 263.08 Q231.412 262.71 229.005 261.969 L229.005 257.27 Q231.088 258.404 233.31 258.96 Q235.533 259.516 238.009 259.516 Q242.014 259.516 244.352 257.409 Q246.69 255.303 246.69 251.691 Q246.69 248.08 244.352 245.974 Q242.014 243.867 238.009 243.867 Q236.135 243.867 234.26 244.284 Q232.408 244.701 230.463 245.58 L230.463 228.219 Z" fill="#000000" fill-rule="nonzero" fill-opacity="1" /><path clip-path="url(#clip580)" d="M20.8447 896.486 Q20.8447 903.489 26.0645 907.626 Q31.2844 911.732 40.2919 911.732 Q49.2675 911.732 54.4874 907.626 Q59.7073 903.489 59.7073 896.486 Q59.7073 889.484 54.4874 885.41 Q49.2675 881.304 40.2919 881.304 Q31.2844 881.304 26.0645 885.41 Q20.8447 889.484 20.8447 896.486 M15.6248 896.486 Q15.6248 886.492 22.3406 880.509 Q29.0246 874.525 40.2919 874.525 Q51.5274 874.525 58.2432 880.509 Q64.9272 886.492 64.9272 896.486 Q64.9272 906.512 58.2432 912.528 Q51.5592 918.512 40.2919 918.512 Q29.0246 918.512 22.3406 912.528 Q15.6248 906.512 15.6248 896.486 Z" fill="#000000" fill-rule="nonzero" fill-opacity="1" /><path clip-path="url(#clip580)" d="M49.9359 865.326 L28.3562 865.326 L28.3562 859.47 L49.7131 859.47 Q54.7739 859.47 57.3202 857.497 Q59.8346 855.523 59.8346 851.576 Q59.8346 846.834 56.8109 844.097 Q53.7872 841.328 48.5673 841.328 L28.3562 841.328 L28.3562 835.471 L64.0042 835.471 L64.0042 841.328 L58.5296 841.328 Q61.7762 843.46 63.3676 846.293 Q64.9272 849.094 64.9272 852.818 Q64.9272 858.961 61.1078 862.144 Q57.2883 865.326 49.9359 865.326 M27.4968 850.59 L27.4968 850.59 Z" fill="#000000" fill-rule="nonzero" fill-opacity="1" /><path clip-path="url(#clip580)" d="M18.2347 817.615 L28.3562 817.615 L28.3562 805.552 L32.9077 805.552 L32.9077 817.615 L52.2594 817.615 Q56.6199 817.615 57.8613 816.438 Q59.1026 815.228 59.1026 811.568 L59.1026 805.552 L64.0042 805.552 L64.0042 811.568 Q64.0042 818.347 61.4897 820.926 Q58.9434 823.504 52.2594 823.504 L32.9077 823.504 L32.9077 827.801 L28.3562 827.801 L28.3562 823.504 L18.2347 823.504 L18.2347 817.615 Z" fill="#000000" fill-rule="nonzero" fill-opacity="1" /><path clip-path="url(#clip580)" d="M29.7248 772.196 L35.1993 772.196 Q33.8307 774.679 33.1623 777.193 Q32.4621 779.676 32.4621 782.222 Q32.4621 787.919 36.0905 791.07 Q39.6872 794.221 46.212 794.221 Q52.7369 794.221 56.3653 791.07 Q59.9619 787.919 59.9619 782.222 Q59.9619 779.676 59.2935 777.193 Q58.5933 774.679 57.2247 772.196 L62.6355 772.196 Q63.7814 774.647 64.3543 777.289 Q64.9272 779.899 64.9272 782.859 Q64.9272 790.911 59.8664 795.654 Q54.8057 800.396 46.212 800.396 Q37.491 800.396 32.4939 795.622 Q27.4968 790.816 27.4968 782.477 Q27.4968 779.771 28.0697 777.193 Q28.6108 774.615 29.7248 772.196 Z" fill="#000000" fill-rule="nonzero" fill-opacity="1" /><path clip-path="url(#clip580)" d="M32.4621 748.197 Q32.4621 752.908 36.1542 755.645 Q39.8145 758.382 46.212 758.382 Q52.6095 758.382 56.3017 755.677 Q59.9619 752.94 59.9619 748.197 Q59.9619 743.519 56.2698 740.781 Q52.5777 738.044 46.212 738.044 Q39.8781 738.044 36.186 740.781 Q32.4621 743.519 32.4621 748.197 M27.4968 748.197 Q27.4968 740.559 32.4621 736.198 Q37.4273 731.837 46.212 731.837 Q54.9649 731.837 59.9619 736.198 Q64.9272 740.559 64.9272 748.197 Q64.9272 755.868 59.9619 760.229 Q54.9649 764.557 46.212 764.557 Q37.4273 764.557 32.4621 760.229 Q27.4968 755.868 27.4968 748.197 Z" fill="#000000" fill-rule="nonzero" fill-opacity="1" /><path clip-path="url(#clip580)" d="M35.1993 694.375 Q31.2526 692.179 29.3747 689.124 Q27.4968 686.068 27.4968 681.93 Q27.4968 676.36 31.4117 673.337 Q35.2948 670.313 42.4881 670.313 L64.0042 670.313 L64.0042 676.201 L42.679 676.201 Q37.5546 676.201 35.072 678.015 Q32.5894 679.83 32.5894 683.554 Q32.5894 688.105 35.6131 690.747 Q38.6368 693.389 43.8567 693.389 L64.0042 693.389 L64.0042 699.277 L42.679 699.277 Q37.5228 699.277 35.072 701.091 Q32.5894 702.905 32.5894 706.693 Q32.5894 711.181 35.6449 713.823 Q38.6686 716.464 43.8567 716.464 L64.0042 716.464 L64.0042 722.353 L28.3562 722.353 L28.3562 716.464 L33.8944 716.464 Q30.616 714.459 29.0564 711.658 Q27.4968 708.857 27.4968 705.006 Q27.4968 701.123 29.4702 698.418 Q31.4436 695.68 35.1993 694.375 Z" fill="#000000" fill-rule="nonzero" fill-opacity="1" /><path clip-path="url(#clip580)" d="M44.7161 628.14 L47.5806 628.14 L47.5806 655.067 Q53.6281 654.685 56.8109 651.439 Q59.9619 648.16 59.9619 642.336 Q59.9619 638.962 59.1344 635.811 Q58.3069 632.628 56.6518 629.509 L62.1899 629.509 Q63.5267 632.66 64.227 635.97 Q64.9272 639.28 64.9272 642.686 Q64.9272 651.216 59.9619 656.213 Q54.9967 661.178 46.5303 661.178 Q37.7774 661.178 32.6531 656.468 Q27.4968 651.725 27.4968 643.704 Q27.4968 636.511 32.1438 632.341 Q36.7589 628.14 44.7161 628.14 M42.9973 633.997 Q38.1912 634.06 35.3266 636.702 Q32.4621 639.312 32.4621 643.641 Q32.4621 648.542 35.2312 651.502 Q38.0002 654.43 43.0292 654.876 L42.9973 633.997 Z" fill="#000000" fill-rule="nonzero" fill-opacity="1" /><path clip-path="url(#clip580)" d="M598.068 14.0809 L598.068 22.0612 Q593.41 19.8332 589.278 18.7395 Q585.146 17.6457 581.298 17.6457 Q574.614 17.6457 570.968 20.2383 Q567.362 22.8309 567.362 27.611 Q567.362 31.6214 569.752 33.6873 Q572.183 35.7128 578.907 36.9686 L583.85 37.9813 Q593.005 39.7232 597.339 44.1387 Q601.714 48.5136 601.714 55.8863 Q601.714 64.6767 595.8 69.2137 Q589.926 73.7508 578.543 73.7508 Q574.249 73.7508 569.388 72.7785 Q564.567 71.8063 559.382 69.9024 L559.382 61.4765 Q564.365 64.2716 569.145 65.6895 Q573.925 67.1073 578.543 67.1073 Q585.551 67.1073 589.359 64.3527 Q593.167 61.598 593.167 56.4939 Q593.167 52.0379 590.412 49.5264 Q587.698 47.0148 581.46 45.759 L576.477 44.7868 Q567.322 42.9639 563.23 39.075 Q559.139 35.1862 559.139 28.2591 Q559.139 20.2383 564.77 15.6203 Q570.441 11.0023 580.366 11.0023 Q584.619 11.0023 589.035 11.7719 Q593.45 12.5416 598.068 14.0809 Z" fill="#000000" fill-rule="nonzero" fill-opacity="1" /><path clip-path="url(#clip580)" d="M659.764 16.7545 L659.764 25.383 Q655.632 21.5346 650.933 19.6307 Q646.274 17.7268 641.008 17.7268 Q630.638 17.7268 625.128 24.0867 Q619.619 30.4061 619.619 42.3968 Q619.619 54.3469 625.128 60.7069 Q630.638 67.0263 641.008 67.0263 Q646.274 67.0263 650.933 65.1223 Q655.632 63.2184 659.764 59.3701 L659.764 67.9175 Q655.47 70.8341 650.649 72.2924 Q645.869 73.7508 640.522 73.7508 Q626.789 73.7508 618.89 65.3654 Q610.991 56.9395 610.991 42.3968 Q610.991 27.8135 618.89 19.4281 Q626.789 11.0023 640.522 11.0023 Q645.95 11.0023 650.73 12.4606 Q655.551 13.8784 659.764 16.7545 Z" fill="#000000" fill-rule="nonzero" fill-opacity="1" /><path clip-path="url(#clip580)" d="M731.019 49.9314 Q731.019 41.7081 727.616 37.0496 Q724.254 32.3505 718.34 32.3505 Q712.425 32.3505 709.023 37.0496 Q705.66 41.7081 705.66 49.9314 Q705.66 58.1548 709.023 62.8538 Q712.425 67.5124 718.34 67.5124 Q724.254 67.5124 727.616 62.8538 Q731.019 58.1548 731.019 49.9314 M705.66 34.0924 Q708.01 30.0415 711.575 28.0971 Q715.18 26.1121 720.162 26.1121 Q728.426 26.1121 733.571 32.6746 Q738.756 39.2371 738.756 49.9314 Q738.756 60.6258 733.571 67.1883 Q728.426 73.7508 720.162 73.7508 Q715.18 73.7508 711.575 71.8063 Q708.01 69.8214 705.66 65.7705 L705.66 72.576 L698.166 72.576 L698.166 9.54393 L705.66 9.54393 L705.66 34.0924 Z" fill="#000000" fill-rule="nonzero" fill-opacity="1" /><path clip-path="url(#clip580)" d="M771.731 49.7694 Q762.697 49.7694 759.213 51.8354 Q755.729 53.9013 755.729 58.8839 Q755.729 62.8538 758.322 65.2034 Q760.955 67.5124 765.452 67.5124 Q771.649 67.5124 775.376 63.1374 Q779.144 58.7219 779.144 51.4303 L779.144 49.7694 L771.731 49.7694 M786.597 46.6907 L786.597 72.576 L779.144 72.576 L779.144 65.6895 Q776.592 69.8214 772.784 71.8063 Q768.976 73.7508 763.467 73.7508 Q756.499 73.7508 752.367 69.8619 Q748.276 65.9325 748.276 59.3701 Q748.276 51.7138 753.38 47.825 Q758.525 43.9361 768.692 43.9361 L779.144 43.9361 L779.144 43.2069 Q779.144 38.0623 775.741 35.2672 Q772.379 32.4315 766.262 32.4315 Q762.373 32.4315 758.687 33.3632 Q755 34.295 751.598 36.1584 L751.598 29.2718 Q755.689 27.692 759.537 26.9223 Q763.386 26.1121 767.031 26.1121 Q776.875 26.1121 781.736 31.2163 Q786.597 36.3204 786.597 46.6907 Z" fill="#000000" fill-rule="nonzero" fill-opacity="1" /><path clip-path="url(#clip580)" d="M830.874 28.5427 L830.874 35.5912 Q827.714 33.9709 824.311 33.1607 Q820.908 32.3505 817.263 32.3505 Q811.713 32.3505 808.918 34.0519 Q806.163 35.7533 806.163 39.156 Q806.163 41.7486 808.148 43.2475 Q810.133 44.7058 816.128 46.0426 L818.68 46.6097 Q826.62 48.3111 829.942 51.4303 Q833.304 54.509 833.304 60.0587 Q833.304 66.3781 828.281 70.0644 Q823.299 73.7508 814.549 73.7508 Q810.903 73.7508 806.933 73.0216 Q803.003 72.3329 798.629 70.9151 L798.629 63.2184 Q802.76 65.3654 806.771 66.4591 Q810.781 67.5124 814.711 67.5124 Q819.977 67.5124 822.812 65.73 Q825.648 63.9071 825.648 60.6258 Q825.648 57.5877 823.582 55.9673 Q821.557 54.3469 814.63 52.8481 L812.037 52.2405 Q805.11 50.7821 802.031 47.7845 Q798.953 44.7463 798.953 39.4801 Q798.953 33.0797 803.49 29.5959 Q808.027 26.1121 816.371 26.1121 Q820.503 26.1121 824.149 26.7198 Q827.795 27.3274 830.874 28.5427 Z" fill="#000000" fill-rule="nonzero" fill-opacity="1" /><path clip-path="url(#clip580)" d="M883.981 48.0275 L883.981 51.6733 L849.71 51.6733 Q850.197 59.3701 854.328 63.421 Q858.501 67.4314 865.914 67.4314 Q870.208 67.4314 874.218 66.3781 Q878.269 65.3249 882.239 63.2184 L882.239 70.267 Q878.229 71.9684 874.016 72.8596 Q869.803 73.7508 865.468 73.7508 Q854.612 73.7508 848.252 67.4314 Q841.933 61.1119 841.933 50.3365 Q841.933 39.1965 847.928 32.6746 Q853.964 26.1121 864.172 26.1121 Q873.327 26.1121 878.634 32.0264 Q883.981 37.9003 883.981 48.0275 M876.527 45.84 Q876.446 39.7232 873.084 36.0774 Q869.762 32.4315 864.253 32.4315 Q858.015 32.4315 854.247 35.9558 Q850.521 39.4801 849.953 45.8805 L876.527 45.84 Z" fill="#000000" fill-rule="nonzero" fill-opacity="1" /><path clip-path="url(#clip580)" d="M896.215 9.54393 L903.668 9.54393 L903.668 72.576 L896.215 72.576 L896.215 9.54393 Z" fill="#000000" fill-rule="nonzero" fill-opacity="1" /><path clip-path="url(#clip580)" d="M919.264 27.2059 L926.718 27.2059 L926.718 72.576 L919.264 72.576 L919.264 27.2059 M919.264 9.54393 L926.718 9.54393 L926.718 18.9825 L919.264 18.9825 L919.264 9.54393 Z" fill="#000000" fill-rule="nonzero" fill-opacity="1" /><path clip-path="url(#clip580)" d="M980.028 45.1919 L980.028 72.576 L972.574 72.576 L972.574 45.4349 Q972.574 38.994 970.063 35.7938 Q967.551 32.5936 962.528 32.5936 Q956.492 32.5936 953.008 36.4419 Q949.525 40.2903 949.525 46.9338 L949.525 72.576 L942.031 72.576 L942.031 27.2059 L949.525 27.2059 L949.525 34.2544 Q952.198 30.163 955.804 28.1376 Q959.449 26.1121 964.189 26.1121 Q972.007 26.1121 976.018 30.9732 Q980.028 35.7938 980.028 45.1919 Z" fill="#000000" fill-rule="nonzero" fill-opacity="1" /><path clip-path="url(#clip580)" d="M1033.7 48.0275 L1033.7 51.6733 L999.432 51.6733 Q999.918 59.3701 1004.05 63.421 Q1008.22 67.4314 1015.64 67.4314 Q1019.93 67.4314 1023.94 66.3781 Q1027.99 65.3249 1031.96 63.2184 L1031.96 70.267 Q1027.95 71.9684 1023.74 72.8596 Q1019.52 73.7508 1015.19 73.7508 Q1004.33 73.7508 997.974 67.4314 Q991.654 61.1119 991.654 50.3365 Q991.654 39.1965 997.649 32.6746 Q1003.69 26.1121 1013.89 26.1121 Q1023.05 26.1121 1028.36 32.0264 Q1033.7 37.9003 1033.7 48.0275 M1026.25 45.84 Q1026.17 39.7232 1022.81 36.0774 Q1019.48 32.4315 1013.97 32.4315 Q1007.74 32.4315 1003.97 35.9558 Q1000.24 39.4801 999.675 45.8805 L1026.25 45.84 Z" fill="#000000" fill-rule="nonzero" fill-opacity="1" /><path clip-path="url(#clip580)" d="M1092.93 49.7694 Q1083.89 49.7694 1080.41 51.8354 Q1076.93 53.9013 1076.93 58.8839 Q1076.93 62.8538 1079.52 65.2034 Q1082.15 67.5124 1086.65 67.5124 Q1092.85 67.5124 1096.57 63.1374 Q1100.34 58.7219 1100.34 51.4303 L1100.34 49.7694 L1092.93 49.7694 M1107.79 46.6907 L1107.79 72.576 L1100.34 72.576 L1100.34 65.6895 Q1097.79 69.8214 1093.98 71.8063 Q1090.17 73.7508 1084.66 73.7508 Q1077.7 73.7508 1073.56 69.8619 Q1069.47 65.9325 1069.47 59.3701 Q1069.47 51.7138 1074.58 47.825 Q1079.72 43.9361 1089.89 43.9361 L1100.34 43.9361 L1100.34 43.2069 Q1100.34 38.0623 1096.94 35.2672 Q1093.57 32.4315 1087.46 32.4315 Q1083.57 32.4315 1079.88 33.3632 Q1076.2 34.295 1072.79 36.1584 L1072.79 29.2718 Q1076.89 27.692 1080.73 26.9223 Q1084.58 26.1121 1088.23 26.1121 Q1098.07 26.1121 1102.93 31.2163 Q1107.79 36.3204 1107.79 46.6907 Z" fill="#000000" fill-rule="nonzero" fill-opacity="1" /><path clip-path="url(#clip580)" d="M1160.86 45.1919 L1160.86 72.576 L1153.41 72.576 L1153.41 45.4349 Q1153.41 38.994 1150.9 35.7938 Q1148.38 32.5936 1143.36 32.5936 Q1137.32 32.5936 1133.84 36.4419 Q1130.36 40.2903 1130.36 46.9338 L1130.36 72.576 L1122.86 72.576 L1122.86 27.2059 L1130.36 27.2059 L1130.36 34.2544 Q1133.03 30.163 1136.64 28.1376 Q1140.28 26.1121 1145.02 26.1121 Q1152.84 26.1121 1156.85 30.9732 Q1160.86 35.7938 1160.86 45.1919 Z" fill="#000000" fill-rule="nonzero" fill-opacity="1" /><path clip-path="url(#clip580)" d="M1205.58 34.0924 L1205.58 9.54393 L1213.04 9.54393 L1213.04 72.576 L1205.58 72.576 L1205.58 65.7705 Q1203.23 69.8214 1199.63 71.8063 Q1196.06 73.7508 1191.04 73.7508 Q1182.82 73.7508 1177.63 67.1883 Q1172.49 60.6258 1172.49 49.9314 Q1172.49 39.2371 1177.63 32.6746 Q1182.82 26.1121 1191.04 26.1121 Q1196.06 26.1121 1199.63 28.0971 Q1203.23 30.0415 1205.58 34.0924 M1180.18 49.9314 Q1180.18 58.1548 1183.55 62.8538 Q1186.95 67.5124 1192.86 67.5124 Q1198.78 67.5124 1202.18 62.8538 Q1205.58 58.1548 1205.58 49.9314 Q1205.58 41.7081 1202.18 37.0496 Q1198.78 32.3505 1192.86 32.3505 Q1186.95 32.3505 1183.55 37.0496 Q1180.18 41.7081 1180.18 49.9314 Z" fill="#000000" fill-rule="nonzero" fill-opacity="1" /><path clip-path="url(#clip580)" d="M1246.7 12.096 L1297.86 12.096 L1297.86 18.9825 L1276.39 18.9825 L1276.39 72.576 L1268.17 72.576 L1268.17 18.9825 L1246.7 18.9825 L1246.7 12.096 Z" fill="#000000" fill-rule="nonzero" fill-opacity="1" /><path clip-path="url(#clip580)" d="M1319.53 20.1573 L1308.43 50.2555 L1330.67 50.2555 L1319.53 20.1573 M1314.92 12.096 L1324.19 12.096 L1347.24 72.576 L1338.74 72.576 L1333.23 57.061 L1305.96 57.061 L1300.45 72.576 L1291.83 72.576 L1314.92 12.096 Z" fill="#000000" fill-rule="nonzero" fill-opacity="1" /><path clip-path="url(#clip580)" d="M1392.33 14.0809 L1392.33 22.0612 Q1387.67 19.8332 1383.54 18.7395 Q1379.41 17.6457 1375.56 17.6457 Q1368.87 17.6457 1365.23 20.2383 Q1361.62 22.8309 1361.62 27.611 Q1361.62 31.6214 1364.01 33.6873 Q1366.44 35.7128 1373.17 36.9686 L1378.11 37.9813 Q1387.27 39.7232 1391.6 44.1387 Q1395.97 48.5136 1395.97 55.8863 Q1395.97 64.6767 1390.06 69.2137 Q1384.19 73.7508 1372.8 73.7508 Q1368.51 73.7508 1363.65 72.7785 Q1358.83 71.8063 1353.64 69.9024 L1353.64 61.4765 Q1358.63 64.2716 1363.41 65.6895 Q1368.19 67.1073 1372.8 67.1073 Q1379.81 67.1073 1383.62 64.3527 Q1387.43 61.598 1387.43 56.4939 Q1387.43 52.0379 1384.67 49.5264 Q1381.96 47.0148 1375.72 45.759 L1370.74 44.7868 Q1361.58 42.9639 1357.49 39.075 Q1353.4 35.1862 1353.4 28.2591 Q1353.4 20.2383 1359.03 15.6203 Q1364.7 11.0023 1374.63 11.0023 Q1378.88 11.0023 1383.3 11.7719 Q1387.71 12.5416 1392.33 14.0809 Z" fill="#000000" fill-rule="nonzero" fill-opacity="1" /><path clip-path="url(#clip580)" d="M1454.02 16.7545 L1454.02 25.383 Q1449.89 21.5346 1445.19 19.6307 Q1440.53 17.7268 1435.27 17.7268 Q1424.9 17.7268 1419.39 24.0867 Q1413.88 30.4061 1413.88 42.3968 Q1413.88 54.3469 1419.39 60.7069 Q1424.9 67.0263 1435.27 67.0263 Q1440.53 67.0263 1445.19 65.1223 Q1449.89 63.2184 1454.02 59.3701 L1454.02 67.9175 Q1449.73 70.8341 1444.91 72.2924 Q1440.13 73.7508 1434.78 73.7508 Q1421.05 73.7508 1413.15 65.3654 Q1405.25 56.9395 1405.25 42.3968 Q1405.25 27.8135 1413.15 19.4281 Q1421.05 11.0023 1434.78 11.0023 Q1440.21 11.0023 1444.99 12.4606 Q1449.81 13.8784 1454.02 16.7545 Z" fill="#000000" fill-rule="nonzero" fill-opacity="1" /><path clip-path="url(#clip580)" d="M1525.36 28.9478 L1525.36 35.9153 Q1522.2 34.1734 1519 33.3227 Q1515.84 32.4315 1512.6 32.4315 Q1505.35 32.4315 1501.34 37.0496 Q1497.33 41.6271 1497.33 49.9314 Q1497.33 58.2358 1501.34 62.8538 Q1505.35 67.4314 1512.6 67.4314 Q1515.84 67.4314 1519 66.5807 Q1522.2 65.6895 1525.36 63.9476 L1525.36 70.8341 Q1522.24 72.2924 1518.88 73.0216 Q1515.56 73.7508 1511.79 73.7508 Q1501.54 73.7508 1495.51 67.3098 Q1489.47 60.8689 1489.47 49.9314 Q1489.47 38.832 1495.55 32.472 Q1501.66 26.1121 1512.28 26.1121 Q1515.72 26.1121 1519 26.8413 Q1522.28 27.5299 1525.36 28.9478 Z" fill="#000000" fill-rule="nonzero" fill-opacity="1" /><path clip-path="url(#clip580)" d="M1555.9 32.4315 Q1549.91 32.4315 1546.43 37.1306 Q1542.94 41.7891 1542.94 49.9314 Q1542.94 58.0738 1546.38 62.7728 Q1549.87 67.4314 1555.9 67.4314 Q1561.86 67.4314 1565.34 62.7323 Q1568.83 58.0333 1568.83 49.9314 Q1568.83 41.8701 1565.34 37.1711 Q1561.86 32.4315 1555.9 32.4315 M1555.9 26.1121 Q1565.63 26.1121 1571.18 32.4315 Q1576.73 38.7509 1576.73 49.9314 Q1576.73 61.0714 1571.18 67.4314 Q1565.63 73.7508 1555.9 73.7508 Q1546.14 73.7508 1540.59 67.4314 Q1535.08 61.0714 1535.08 49.9314 Q1535.08 38.7509 1540.59 32.4315 Q1546.14 26.1121 1555.9 26.1121 Z" fill="#000000" fill-rule="nonzero" fill-opacity="1" /><path clip-path="url(#clip580)" d="M1588.31 54.671 L1588.31 27.2059 L1595.77 27.2059 L1595.77 54.3874 Q1595.77 60.8284 1598.28 64.0691 Q1600.79 67.2693 1605.81 67.2693 Q1611.85 67.2693 1615.33 63.421 Q1618.86 59.5726 1618.86 52.9291 L1618.86 27.2059 L1626.31 27.2059 L1626.31 72.576 L1618.86 72.576 L1618.86 65.6084 Q1616.14 69.7404 1612.54 71.7658 Q1608.97 73.7508 1604.23 73.7508 Q1596.41 73.7508 1592.36 68.8897 Q1588.31 64.0286 1588.31 54.671 M1607.07 26.1121 L1607.07 26.1121 Z" fill="#000000" fill-rule="nonzero" fill-opacity="1" /><path clip-path="url(#clip580)" d="M1679.38 45.1919 L1679.38 72.576 L1671.92 72.576 L1671.92 45.4349 Q1671.92 38.994 1669.41 35.7938 Q1666.9 32.5936 1661.88 32.5936 Q1655.84 32.5936 1652.36 36.4419 Q1648.87 40.2903 1648.87 46.9338 L1648.87 72.576 L1641.38 72.576 L1641.38 27.2059 L1648.87 27.2059 L1648.87 34.2544 Q1651.55 30.163 1655.15 28.1376 Q1658.8 26.1121 1663.54 26.1121 Q1671.36 26.1121 1675.37 30.9732 Q1679.38 35.7938 1679.38 45.1919 Z" fill="#000000" fill-rule="nonzero" fill-opacity="1" /><path clip-path="url(#clip580)" d="M1701.62 14.324 L1701.62 27.2059 L1716.97 27.2059 L1716.97 32.9987 L1701.62 32.9987 L1701.62 57.6282 Q1701.62 63.1779 1703.11 64.7578 Q1704.65 66.3376 1709.31 66.3376 L1716.97 66.3376 L1716.97 72.576 L1709.31 72.576 Q1700.68 72.576 1697.4 69.3758 Q1694.12 66.1351 1694.12 57.6282 L1694.12 32.9987 L1688.65 32.9987 L1688.65 27.2059 L1694.12 27.2059 L1694.12 14.324 L1701.62 14.324 Z" fill="#000000" fill-rule="nonzero" fill-opacity="1" /><path clip-path="url(#clip580)" d="M1765.58 48.0275 L1765.58 51.6733 L1731.31 51.6733 Q1731.79 59.3701 1735.93 63.421 Q1740.1 67.4314 1747.51 67.4314 Q1751.81 67.4314 1755.82 66.3781 Q1759.87 65.3249 1763.84 63.2184 L1763.84 70.267 Q1759.83 71.9684 1755.61 72.8596 Q1751.4 73.7508 1747.07 73.7508 Q1736.21 73.7508 1729.85 67.4314 Q1723.53 61.1119 1723.53 50.3365 Q1723.53 39.1965 1729.53 32.6746 Q1735.56 26.1121 1745.77 26.1121 Q1754.93 26.1121 1760.23 32.0264 Q1765.58 37.9003 1765.58 48.0275 M1758.13 45.84 Q1758.04 39.7232 1754.68 36.0774 Q1751.36 32.4315 1745.85 32.4315 Q1739.61 32.4315 1735.85 35.9558 Q1732.12 39.4801 1731.55 45.8805 L1758.13 45.84 Z" fill="#000000" fill-rule="nonzero" fill-opacity="1" /><path clip-path="url(#clip580)" d="M1804.1 34.1734 Q1802.85 33.4443 1801.35 33.1202 Q1799.89 32.7556 1798.11 32.7556 Q1791.79 32.7556 1788.39 36.8875 Q1785.02 40.9789 1785.02 48.6757 L1785.02 72.576 L1777.53 72.576 L1777.53 27.2059 L1785.02 27.2059 L1785.02 34.2544 Q1787.37 30.1225 1791.14 28.1376 Q1794.91 26.1121 1800.3 26.1121 Q1801.07 26.1121 1802 26.2337 Q1802.93 26.3147 1804.06 26.5172 L1804.1 34.1734 Z" fill="#000000" fill-rule="nonzero" fill-opacity="1" /><path clip-path="url(#clip580)" d="M1834.89 9.54393 L1834.89 15.7418 L1827.76 15.7418 Q1823.75 15.7418 1822.17 17.3622 Q1820.63 18.9825 1820.63 23.1955 L1820.63 27.2059 L1832.91 27.2059 L1832.91 32.9987 L1820.63 32.9987 L1820.63 72.576 L1813.14 72.576 L1813.14 32.9987 L1806.01 32.9987 L1806.01 27.2059 L1813.14 27.2059 L1813.14 24.0462 Q1813.14 16.471 1816.66 13.0277 Q1820.19 9.54393 1827.84 9.54393 L1834.89 9.54393 Z" fill="#000000" fill-rule="nonzero" fill-opacity="1" /><path clip-path="url(#clip580)" d="M1861.75 49.7694 Q1852.71 49.7694 1849.23 51.8354 Q1845.75 53.9013 1845.75 58.8839 Q1845.75 62.8538 1848.34 65.2034 Q1850.97 67.5124 1855.47 67.5124 Q1861.67 67.5124 1865.39 63.1374 Q1869.16 58.7219 1869.16 51.4303 L1869.16 49.7694 L1861.75 49.7694 M1876.61 46.6907 L1876.61 72.576 L1869.16 72.576 L1869.16 65.6895 Q1866.61 69.8214 1862.8 71.8063 Q1858.99 73.7508 1853.48 73.7508 Q1846.52 73.7508 1842.38 69.8619 Q1838.29 65.9325 1838.29 59.3701 Q1838.29 51.7138 1843.4 47.825 Q1848.54 43.9361 1858.71 43.9361 L1869.16 43.9361 L1869.16 43.2069 Q1869.16 38.0623 1865.76 35.2672 Q1862.4 32.4315 1856.28 32.4315 Q1852.39 32.4315 1848.7 33.3632 Q1845.02 34.295 1841.61 36.1584 L1841.61 29.2718 Q1845.71 27.692 1849.55 26.9223 Q1853.4 26.1121 1857.05 26.1121 Q1866.89 26.1121 1871.75 31.2163 Q1876.61 36.3204 1876.61 46.6907 Z" fill="#000000" fill-rule="nonzero" fill-opacity="1" /><path clip-path="url(#clip580)" d="M1924.62 28.9478 L1924.62 35.9153 Q1921.46 34.1734 1918.26 33.3227 Q1915.1 32.4315 1911.86 32.4315 Q1904.61 32.4315 1900.6 37.0496 Q1896.59 41.6271 1896.59 49.9314 Q1896.59 58.2358 1900.6 62.8538 Q1904.61 67.4314 1911.86 67.4314 Q1915.1 67.4314 1918.26 66.5807 Q1921.46 65.6895 1924.62 63.9476 L1924.62 70.8341 Q1921.5 72.2924 1918.14 73.0216 Q1914.81 73.7508 1911.05 73.7508 Q1900.8 73.7508 1894.76 67.3098 Q1888.73 60.8689 1888.73 49.9314 Q1888.73 38.832 1894.8 32.472 Q1900.92 26.1121 1911.53 26.1121 Q1914.98 26.1121 1918.26 26.8413 Q1921.54 27.5299 1924.62 28.9478 Z" fill="#000000" fill-rule="nonzero" fill-opacity="1" /><path clip-path="url(#clip580)" d="M1944.95 14.324 L1944.95 27.2059 L1960.31 27.2059 L1960.31 32.9987 L1944.95 32.9987 L1944.95 57.6282 Q1944.95 63.1779 1946.45 64.7578 Q1947.99 66.3376 1952.65 66.3376 L1960.31 66.3376 L1960.31 72.576 L1952.65 72.576 Q1944.02 72.576 1940.74 69.3758 Q1937.46 66.1351 1937.46 57.6282 L1937.46 32.9987 L1931.99 32.9987 L1931.99 27.2059 L1937.46 27.2059 L1937.46 14.324 L1944.95 14.324 Z" fill="#000000" fill-rule="nonzero" fill-opacity="1" /><path clip-path="url(#clip580)" d="M1969.34 54.671 L1969.34 27.2059 L1976.79 27.2059 L1976.79 54.3874 Q1976.79 60.8284 1979.31 64.0691 Q1981.82 67.2693 1986.84 67.2693 Q1992.88 67.2693 1996.36 63.421 Q1999.88 59.5726 1999.88 52.9291 L1999.88 27.2059 L2007.34 27.2059 L2007.34 72.576 L1999.88 72.576 L1999.88 65.6084 Q1997.17 69.7404 1993.56 71.7658 Q1990 73.7508 1985.26 73.7508 Q1977.44 73.7508 1973.39 68.8897 Q1969.34 64.0286 1969.34 54.671 M1988.1 26.1121 L1988.1 26.1121 Z" fill="#000000" fill-rule="nonzero" fill-opacity="1" /><path clip-path="url(#clip580)" d="M2043.31 49.7694 Q2034.28 49.7694 2030.79 51.8354 Q2027.31 53.9013 2027.31 58.8839 Q2027.31 62.8538 2029.9 65.2034 Q2032.53 67.5124 2037.03 67.5124 Q2043.23 67.5124 2046.96 63.1374 Q2050.72 58.7219 2050.72 51.4303 L2050.72 49.7694 L2043.31 49.7694 M2058.18 46.6907 L2058.18 72.576 L2050.72 72.576 L2050.72 65.6895 Q2048.17 69.8214 2044.36 71.8063 Q2040.55 73.7508 2035.05 73.7508 Q2028.08 73.7508 2023.95 69.8619 Q2019.85 65.9325 2019.85 59.3701 Q2019.85 51.7138 2024.96 47.825 Q2030.1 43.9361 2040.27 43.9361 L2050.72 43.9361 L2050.72 43.2069 Q2050.72 38.0623 2047.32 35.2672 Q2043.96 32.4315 2037.84 32.4315 Q2033.95 32.4315 2030.27 33.3632 Q2026.58 34.295 2023.18 36.1584 L2023.18 29.2718 Q2027.27 27.692 2031.12 26.9223 Q2034.96 26.1121 2038.61 26.1121 Q2048.45 26.1121 2053.32 31.2163 Q2058.18 36.3204 2058.18 46.6907 Z" fill="#000000" fill-rule="nonzero" fill-opacity="1" /><path clip-path="url(#clip580)" d="M2073.53 9.54393 L2080.98 9.54393 L2080.98 72.576 L2073.53 72.576 L2073.53 9.54393 Z" fill="#000000" fill-rule="nonzero" fill-opacity="1" /><polyline clip-path="url(#clip582)" style="stroke:#000000; stroke-linecap:round; stroke-linejoin:round; stroke-width:8; stroke-opacity:1; fill:none" points="345.82,929.963 385.585,758.341 425.35,925.331 465.115,915.189 504.88,1386.4 544.645,1327.25 584.41,855.296 624.175,1175.69 663.94,980.552 703.705,1250.81 743.47,779.104 783.234,952.233 822.999,993.398 862.764,657.735 902.529,310.837 942.294,223.071 982.059,807.146 1021.82,374.247 1061.59,586.623 1101.35,1034.33 1141.12,722.695 1180.88,567.311 1220.65,525.218 1260.41,999.492 1300.18,257.742 1339.94,1071.42 1379.71,618.579 1419.47,719.536 1459.24,715.638 1499,160.256 1538.77,982.53 1578.53,651.667 1618.3,901.008 1658.06,778.972 1697.83,813.591 1737.59,450.613 1777.36,1033.65 1817.12,674.31 1856.89,522.542 1896.65,708.373 1936.42,680.745 1976.18,607.574 2015.95,751.033 2055.71,826.836 2095.48,934.267 2135.24,655.79 2175.01,1117.65 2214.77,672.144 2254.54,604.382 2294.3,749.827 "/>
<polyline clip-path="url(#clip582)" style="stroke:#ff8c00; stroke-linecap:round; stroke-linejoin:round; stroke-width:8; stroke-opacity:1; fill:none" points="345.82,1057.12 385.585,942.734 425.35,988.068 465.115,1064.89 504.88,1101.07 544.645,1026.53 584.41,961.058 624.175,897.594 663.94,985.497 703.705,996.385 743.47,949.088 783.234,1063.78 822.999,751.683 862.764,561.764 902.529,413.586 942.294,590.33 982.059,744.463 1021.82,531.417 1061.59,766.604 1101.35,735.311 1141.12,427.563 1180.88,739.71 1220.65,676.083 1260.41,770.951 1300.18,472.704 1339.94,683.864 1379.71,656.385 1419.47,647.576 1459.24,781.522 1499,596.11 1538.77,648.6 1578.53,805.894 1618.3,587.426 1658.06,705.641 1697.83,975.117 1737.59,887.985 1777.36,549.182 1817.12,588.744 1856.89,482.638 1896.65,799.669 1936.42,888.208 1976.18,610.883 2015.95,568.929 2055.71,713.111 2095.48,895.585 2135.24,661.955 2175.01,819.344 2214.77,887.199 2254.54,599.919 2294.3,773.98 "/>
<polyline clip-path="url(#clip582)" style="stroke:#2e8b57; stroke-linecap:round; stroke-linejoin:round; stroke-width:8; stroke-opacity:1; fill:none" points="345.82,992.637 385.585,939.48 425.35,1021.19 465.115,1047.81 504.88,1289.13 544.645,1105.93 584.41,971.282 624.175,959.088 663.94,1111.7 703.705,890.684 743.47,827.864 783.234,1012.46 822.999,779.612 862.764,609.542 902.529,495.225 942.294,438.022 982.059,837.719 1021.82,474.168 1061.59,595.016 1101.35,758.958 1141.12,375.401 1180.88,733.115 1220.65,623.72 1260.41,979.085 1300.18,567.067 1339.94,778.348 1379.71,675.691 1419.47,802.882 1459.24,748.308 1499,488.313 1538.77,669.94 1578.53,658.673 1618.3,728.484 1658.06,824.737 1697.83,833.251 1737.59,938.015 1777.36,725.15 1817.12,670.108 1856.89,726.514 1896.65,671.976 1936.42,821.494 1976.18,736.921 2015.95,593.047 2055.71,637.374 2095.48,805.084 2135.24,583.279 2175.01,991.287 2214.77,633.929 2254.54,574.909 2294.3,779.69 "/>
<polyline clip-path="url(#clip582)" style="stroke:#666666; stroke-linecap:round; stroke-linejoin:round; stroke-width:4; stroke-opacity:1; fill:none" stroke-dasharray="16, 10" points="1518.89,2722.89 1518.89,-1176.24 "/>
<path clip-path="url(#clip580)" d="M1693.88 374.156 L2283.91 374.156 L2283.91 166.796 L1693.88 166.796  Z" fill="#ffffff" fill-rule="evenodd" fill-opacity="1"/>
<polyline clip-path="url(#clip580)" style="stroke:#000000; stroke-linecap:round; stroke-linejoin:round; stroke-width:4; stroke-opacity:1; fill:none" points="1693.88,374.156 2283.91,374.156 2283.91,166.796 1693.88,166.796 1693.88,374.156 "/>
<polyline clip-path="url(#clip580)" style="stroke:#000000; stroke-linecap:round; stroke-linejoin:round; stroke-width:8; stroke-opacity:1; fill:none" points="1716.83,218.636 1854.52,218.636 "/>
<path clip-path="url(#clip580)" d="M1893.49 204.527 Q1888.39 204.527 1885.38 208.323 Q1882.4 212.12 1882.4 218.67 Q1882.4 225.198 1885.38 228.994 Q1888.39 232.791 1893.49 232.791 Q1898.58 232.791 1901.54 228.994 Q1904.53 225.198 1904.53 218.67 Q1904.53 212.12 1901.54 208.323 Q1898.58 204.527 1893.49 204.527 M1893.49 200.731 Q1900.75 200.731 1905.11 205.615 Q1909.46 210.476 1909.46 218.67 Q1909.46 226.842 1905.11 231.726 Q1900.75 236.587 1893.49 236.587 Q1886.19 236.587 1881.82 231.726 Q1877.47 226.865 1877.47 218.67 Q1877.47 210.476 1881.82 205.615 Q1886.19 200.731 1893.49 200.731 Z" fill="#000000" fill-rule="nonzero" fill-opacity="1" /><path clip-path="url(#clip580)" d="M1935.2 222.976 Q1935.2 218.277 1933.25 215.615 Q1931.33 212.93 1927.95 212.93 Q1924.57 212.93 1922.63 215.615 Q1920.71 218.277 1920.71 222.976 Q1920.71 227.675 1922.63 230.36 Q1924.57 233.022 1927.95 233.022 Q1931.33 233.022 1933.25 230.36 Q1935.2 227.675 1935.2 222.976 M1920.71 213.925 Q1922.05 211.61 1924.09 210.499 Q1926.15 209.365 1928.99 209.365 Q1933.72 209.365 1936.66 213.115 Q1939.62 216.865 1939.62 222.976 Q1939.62 229.087 1936.66 232.837 Q1933.72 236.587 1928.99 236.587 Q1926.15 236.587 1924.09 235.476 Q1922.05 234.342 1920.71 232.027 L1920.71 235.916 L1916.43 235.916 L1916.43 199.897 L1920.71 199.897 L1920.71 213.925 Z" fill="#000000" fill-rule="nonzero" fill-opacity="1" /><path clip-path="url(#clip580)" d="M1963.21 210.754 L1963.21 214.782 Q1961.4 213.856 1959.46 213.393 Q1957.51 212.93 1955.43 212.93 Q1952.26 212.93 1950.66 213.902 Q1949.09 214.874 1949.09 216.819 Q1949.09 218.3 1950.22 219.157 Q1951.36 219.99 1954.78 220.754 L1956.24 221.078 Q1960.78 222.05 1962.68 223.832 Q1964.6 225.592 1964.6 228.763 Q1964.6 232.374 1961.73 234.481 Q1958.88 236.587 1953.88 236.587 Q1951.8 236.587 1949.53 236.17 Q1947.28 235.777 1944.78 234.967 L1944.78 230.569 Q1947.14 231.795 1949.43 232.42 Q1951.73 233.022 1953.97 233.022 Q1956.98 233.022 1958.6 232.004 Q1960.22 230.962 1960.22 229.087 Q1960.22 227.351 1959.04 226.425 Q1957.88 225.499 1953.93 224.643 L1952.44 224.295 Q1948.49 223.462 1946.73 221.749 Q1944.97 220.013 1944.97 217.004 Q1944.97 213.346 1947.56 211.356 Q1950.15 209.365 1954.92 209.365 Q1957.28 209.365 1959.37 209.712 Q1961.45 210.059 1963.21 210.754 Z" fill="#000000" fill-rule="nonzero" fill-opacity="1" /><path clip-path="url(#clip580)" d="M1993.55 221.888 L1993.55 223.971 L1973.97 223.971 Q1974.25 228.369 1976.61 230.684 Q1978.99 232.976 1983.23 232.976 Q1985.68 232.976 1987.98 232.374 Q1990.29 231.772 1992.56 230.569 L1992.56 234.596 Q1990.27 235.568 1987.86 236.078 Q1985.45 236.587 1982.98 236.587 Q1976.77 236.587 1973.14 232.976 Q1969.53 229.365 1969.53 223.207 Q1969.53 216.842 1972.95 213.115 Q1976.4 209.365 1982.24 209.365 Q1987.47 209.365 1990.5 212.745 Q1993.55 216.101 1993.55 221.888 M1989.3 220.638 Q1989.25 217.143 1987.33 215.059 Q1985.43 212.976 1982.28 212.976 Q1978.72 212.976 1976.56 214.99 Q1974.43 217.004 1974.11 220.661 L1989.3 220.638 Z" fill="#000000" fill-rule="nonzero" fill-opacity="1" /><path clip-path="url(#clip580)" d="M2015.57 213.971 Q2014.85 213.555 2013.99 213.37 Q2013.16 213.161 2012.14 213.161 Q2008.53 213.161 2006.59 215.522 Q2004.67 217.86 2004.67 222.258 L2004.67 235.916 L2000.38 235.916 L2000.38 209.99 L2004.67 209.99 L2004.67 214.018 Q2006.01 211.657 2008.16 210.522 Q2010.31 209.365 2013.39 209.365 Q2013.83 209.365 2014.36 209.434 Q2014.9 209.481 2015.55 209.596 L2015.57 213.971 Z" fill="#000000" fill-rule="nonzero" fill-opacity="1" /><path clip-path="url(#clip580)" d="M2016.98 209.99 L2021.49 209.99 L2029.6 231.749 L2037.7 209.99 L2042.21 209.99 L2032.49 235.916 L2026.7 235.916 L2016.98 209.99 Z" fill="#000000" fill-rule="nonzero" fill-opacity="1" /><path clip-path="url(#clip580)" d="M2070.27 221.888 L2070.27 223.971 L2050.68 223.971 Q2050.96 228.369 2053.32 230.684 Q2055.71 232.976 2059.94 232.976 Q2062.4 232.976 2064.69 232.374 Q2067 231.772 2069.27 230.569 L2069.27 234.596 Q2066.98 235.568 2064.57 236.078 Q2062.17 236.587 2059.69 236.587 Q2053.49 236.587 2049.85 232.976 Q2046.24 229.365 2046.24 223.207 Q2046.24 216.842 2049.67 213.115 Q2053.11 209.365 2058.95 209.365 Q2064.18 209.365 2067.21 212.745 Q2070.27 216.101 2070.27 221.888 M2066.01 220.638 Q2065.96 217.143 2064.04 215.059 Q2062.14 212.976 2058.99 212.976 Q2055.43 212.976 2053.28 214.99 Q2051.15 217.004 2050.82 220.661 L2066.01 220.638 Z" fill="#000000" fill-rule="nonzero" fill-opacity="1" /><path clip-path="url(#clip580)" d="M2094.32 213.925 L2094.32 199.897 L2098.58 199.897 L2098.58 235.916 L2094.32 235.916 L2094.32 232.027 Q2092.98 234.342 2090.92 235.476 Q2088.88 236.587 2086.01 236.587 Q2081.31 236.587 2078.35 232.837 Q2075.41 229.087 2075.41 222.976 Q2075.41 216.865 2078.35 213.115 Q2081.31 209.365 2086.01 209.365 Q2088.88 209.365 2090.92 210.499 Q2092.98 211.61 2094.32 213.925 M2079.8 222.976 Q2079.8 227.675 2081.73 230.36 Q2083.67 233.022 2087.05 233.022 Q2090.43 233.022 2092.37 230.36 Q2094.32 227.675 2094.32 222.976 Q2094.32 218.277 2092.37 215.615 Q2090.43 212.93 2087.05 212.93 Q2083.67 212.93 2081.73 215.615 Q2079.8 218.277 2079.8 222.976 Z" fill="#000000" fill-rule="nonzero" fill-opacity="1" /><path clip-path="url(#clip580)" d="M2126.63 202.629 L2126.63 209.99 L2135.41 209.99 L2135.41 213.3 L2126.63 213.3 L2126.63 227.374 Q2126.63 230.545 2127.49 231.448 Q2128.37 232.351 2131.03 232.351 L2135.41 232.351 L2135.41 235.916 L2131.03 235.916 Q2126.1 235.916 2124.23 234.087 Q2122.35 232.235 2122.35 227.374 L2122.35 213.3 L2119.23 213.3 L2119.23 209.99 L2122.35 209.99 L2122.35 202.629 L2126.63 202.629 Z" fill="#000000" fill-rule="nonzero" fill-opacity="1" /><path clip-path="url(#clip580)" d="M2152.79 222.883 Q2147.63 222.883 2145.64 224.064 Q2143.65 225.244 2143.65 228.092 Q2143.65 230.36 2145.13 231.703 Q2146.63 233.022 2149.2 233.022 Q2152.74 233.022 2154.87 230.522 Q2157.03 227.999 2157.03 223.832 L2157.03 222.883 L2152.79 222.883 M2161.29 221.124 L2161.29 235.916 L2157.03 235.916 L2157.03 231.981 Q2155.57 234.342 2153.39 235.476 Q2151.22 236.587 2148.07 236.587 Q2144.09 236.587 2141.73 234.365 Q2139.39 232.119 2139.39 228.369 Q2139.39 223.994 2142.3 221.772 Q2145.24 219.55 2151.05 219.55 L2157.03 219.55 L2157.03 219.133 Q2157.03 216.194 2155.08 214.596 Q2153.16 212.976 2149.67 212.976 Q2147.44 212.976 2145.34 213.508 Q2143.23 214.041 2141.29 215.106 L2141.29 211.17 Q2143.62 210.268 2145.82 209.828 Q2148.02 209.365 2150.1 209.365 Q2155.73 209.365 2158.51 212.282 Q2161.29 215.198 2161.29 221.124 Z" fill="#000000" fill-rule="nonzero" fill-opacity="1" /><path clip-path="url(#clip580)" d="M2185.08 213.971 Q2184.36 213.555 2183.51 213.37 Q2182.67 213.161 2181.66 213.161 Q2178.04 213.161 2176.1 215.522 Q2174.18 217.86 2174.18 222.258 L2174.18 235.916 L2169.9 235.916 L2169.9 209.99 L2174.18 209.99 L2174.18 214.018 Q2175.52 211.657 2177.67 210.522 Q2179.83 209.365 2182.91 209.365 Q2183.35 209.365 2183.88 209.434 Q2184.41 209.481 2185.06 209.596 L2185.08 213.971 Z" fill="#000000" fill-rule="nonzero" fill-opacity="1" /><path clip-path="url(#clip580)" d="M2205.78 222.652 Q2205.78 218.022 2203.85 215.476 Q2201.96 212.93 2198.51 212.93 Q2195.08 212.93 2193.16 215.476 Q2191.26 218.022 2191.26 222.652 Q2191.26 227.258 2193.16 229.805 Q2195.08 232.351 2198.51 232.351 Q2201.96 232.351 2203.85 229.805 Q2205.78 227.258 2205.78 222.652 M2210.04 232.698 Q2210.04 239.318 2207.1 242.536 Q2204.16 245.777 2198.09 245.777 Q2195.85 245.777 2193.85 245.43 Q2191.86 245.105 2189.99 244.411 L2189.99 240.268 Q2191.86 241.286 2193.69 241.772 Q2195.52 242.258 2197.42 242.258 Q2201.61 242.258 2203.69 240.059 Q2205.78 237.883 2205.78 233.462 L2205.78 231.356 Q2204.46 233.647 2202.4 234.781 Q2200.34 235.916 2197.47 235.916 Q2192.7 235.916 2189.78 232.281 Q2186.86 228.647 2186.86 222.652 Q2186.86 216.633 2189.78 212.999 Q2192.7 209.365 2197.47 209.365 Q2200.34 209.365 2202.4 210.499 Q2204.46 211.633 2205.78 213.925 L2205.78 209.99 L2210.04 209.99 L2210.04 232.698 Z" fill="#000000" fill-rule="nonzero" fill-opacity="1" /><path clip-path="url(#clip580)" d="M2240.98 221.888 L2240.98 223.971 L2221.4 223.971 Q2221.68 228.369 2224.04 230.684 Q2226.42 232.976 2230.66 232.976 Q2233.11 232.976 2235.41 232.374 Q2237.72 231.772 2239.99 230.569 L2239.99 234.596 Q2237.7 235.568 2235.29 236.078 Q2232.88 236.587 2230.41 236.587 Q2224.2 236.587 2220.57 232.976 Q2216.96 229.365 2216.96 223.207 Q2216.96 216.842 2220.38 213.115 Q2223.83 209.365 2229.66 209.365 Q2234.9 209.365 2237.93 212.745 Q2240.98 216.101 2240.98 221.888 M2236.72 220.638 Q2236.68 217.143 2234.76 215.059 Q2232.86 212.976 2229.71 212.976 Q2226.15 212.976 2223.99 214.99 Q2221.86 217.004 2221.54 220.661 L2236.72 220.638 Z" fill="#000000" fill-rule="nonzero" fill-opacity="1" /><path clip-path="url(#clip580)" d="M2252.19 202.629 L2252.19 209.99 L2260.96 209.99 L2260.96 213.3 L2252.19 213.3 L2252.19 227.374 Q2252.19 230.545 2253.04 231.448 Q2253.92 232.351 2256.59 232.351 L2260.96 232.351 L2260.96 235.916 L2256.59 235.916 Q2251.66 235.916 2249.78 234.087 Q2247.91 232.235 2247.91 227.374 L2247.91 213.3 L2244.78 213.3 L2244.78 209.99 L2247.91 209.99 L2247.91 202.629 L2252.19 202.629 Z" fill="#000000" fill-rule="nonzero" fill-opacity="1" /><polyline clip-path="url(#clip580)" style="stroke:#ff8c00; stroke-linecap:round; stroke-linejoin:round; stroke-width:8; stroke-opacity:1; fill:none" points="1716.83,270.476 1854.52,270.476 "/>
<path clip-path="url(#clip580)" d="M1899.71 254.33 L1899.71 258.89 Q1897.05 257.617 1894.69 256.992 Q1892.33 256.367 1890.13 256.367 Q1886.31 256.367 1884.23 257.848 Q1882.17 259.33 1882.17 262.061 Q1882.17 264.353 1883.53 265.534 Q1884.92 266.691 1888.76 267.409 L1891.59 267.987 Q1896.82 268.983 1899.3 271.506 Q1901.8 274.006 1901.8 278.219 Q1901.8 283.242 1898.42 285.834 Q1895.06 288.427 1888.56 288.427 Q1886.1 288.427 1883.32 287.871 Q1880.57 287.316 1877.61 286.228 L1877.61 281.413 Q1880.45 283.01 1883.19 283.821 Q1885.92 284.631 1888.56 284.631 Q1892.56 284.631 1894.74 283.057 Q1896.91 281.483 1896.91 278.566 Q1896.91 276.02 1895.34 274.584 Q1893.79 273.149 1890.22 272.432 L1887.37 271.876 Q1882.14 270.835 1879.81 268.612 Q1877.47 266.39 1877.47 262.432 Q1877.47 257.848 1880.69 255.21 Q1883.93 252.571 1889.6 252.571 Q1892.03 252.571 1894.55 253.011 Q1897.07 253.45 1899.71 254.33 Z" fill="#000000" fill-rule="nonzero" fill-opacity="1" /><path clip-path="url(#clip580)" d="M1934.97 255.858 L1934.97 260.788 Q1932.61 258.589 1929.92 257.501 Q1927.26 256.413 1924.25 256.413 Q1918.32 256.413 1915.18 260.048 Q1912.03 263.659 1912.03 270.51 Q1912.03 277.339 1915.18 280.973 Q1918.32 284.584 1924.25 284.584 Q1927.26 284.584 1929.92 283.496 Q1932.61 282.409 1934.97 280.209 L1934.97 285.094 Q1932.51 286.76 1929.76 287.594 Q1927.03 288.427 1923.97 288.427 Q1916.12 288.427 1911.61 283.635 Q1907.1 278.821 1907.1 270.51 Q1907.1 262.177 1911.61 257.386 Q1916.12 252.571 1923.97 252.571 Q1927.07 252.571 1929.81 253.404 Q1932.56 254.214 1934.97 255.858 Z" fill="#000000" fill-rule="nonzero" fill-opacity="1" /><path clip-path="url(#clip580)" d="M1973.6 262.594 L1973.6 266.622 Q1971.8 265.696 1969.85 265.233 Q1967.91 264.77 1965.82 264.77 Q1962.65 264.77 1961.05 265.742 Q1959.48 266.714 1959.48 268.659 Q1959.48 270.14 1960.62 270.997 Q1961.75 271.83 1965.18 272.594 L1966.63 272.918 Q1971.17 273.89 1973.07 275.672 Q1974.99 277.432 1974.99 280.603 Q1974.99 284.214 1972.12 286.321 Q1969.27 288.427 1964.27 288.427 Q1962.19 288.427 1959.92 288.01 Q1957.68 287.617 1955.18 286.807 L1955.18 282.409 Q1957.54 283.635 1959.83 284.26 Q1962.12 284.862 1964.37 284.862 Q1967.37 284.862 1968.99 283.844 Q1970.62 282.802 1970.62 280.927 Q1970.62 279.191 1969.43 278.265 Q1968.28 277.339 1964.32 276.483 L1962.84 276.135 Q1958.88 275.302 1957.12 273.589 Q1955.36 271.853 1955.36 268.844 Q1955.36 265.186 1957.95 263.196 Q1960.55 261.205 1965.31 261.205 Q1967.68 261.205 1969.76 261.552 Q1971.84 261.899 1973.6 262.594 Z" fill="#000000" fill-rule="nonzero" fill-opacity="1" /><path clip-path="url(#clip580)" d="M1981.77 261.83 L1986.03 261.83 L1986.03 287.756 L1981.77 287.756 L1981.77 261.83 M1981.77 251.737 L1986.03 251.737 L1986.03 257.131 L1981.77 257.131 L1981.77 251.737 Z" fill="#000000" fill-rule="nonzero" fill-opacity="1" /><path clip-path="url(#clip580)" d="M2015.13 266.807 Q2016.73 263.936 2018.95 262.571 Q2021.17 261.205 2024.18 261.205 Q2028.23 261.205 2030.43 264.052 Q2032.63 266.876 2032.63 272.108 L2032.63 287.756 L2028.35 287.756 L2028.35 272.247 Q2028.35 268.52 2027.03 266.714 Q2025.71 264.909 2023 264.909 Q2019.69 264.909 2017.77 267.108 Q2015.85 269.307 2015.85 273.103 L2015.85 287.756 L2011.56 287.756 L2011.56 272.247 Q2011.56 268.497 2010.24 266.714 Q2008.93 264.909 2006.17 264.909 Q2002.91 264.909 2000.99 267.131 Q1999.06 269.33 1999.06 273.103 L1999.06 287.756 L1994.78 287.756 L1994.78 261.83 L1999.06 261.83 L1999.06 265.858 Q2000.52 263.473 2002.56 262.339 Q2004.6 261.205 2007.4 261.205 Q2010.22 261.205 2012.19 262.64 Q2014.18 264.075 2015.13 266.807 Z" fill="#000000" fill-rule="nonzero" fill-opacity="1" /><path clip-path="url(#clip580)" d="M2045.24 283.867 L2045.24 297.617 L2040.96 297.617 L2040.96 261.83 L2045.24 261.83 L2045.24 265.765 Q2046.59 263.45 2048.62 262.339 Q2050.68 261.205 2053.53 261.205 Q2058.25 261.205 2061.19 264.955 Q2064.16 268.705 2064.16 274.816 Q2064.16 280.927 2061.19 284.677 Q2058.25 288.427 2053.53 288.427 Q2050.68 288.427 2048.62 287.316 Q2046.59 286.182 2045.24 283.867 M2059.74 274.816 Q2059.74 270.117 2057.79 267.455 Q2055.87 264.77 2052.49 264.77 Q2049.11 264.77 2047.17 267.455 Q2045.24 270.117 2045.24 274.816 Q2045.24 279.515 2047.17 282.2 Q2049.11 284.862 2052.49 284.862 Q2055.87 284.862 2057.79 282.2 Q2059.74 279.515 2059.74 274.816 Z" fill="#000000" fill-rule="nonzero" fill-opacity="1" /><path clip-path="url(#clip580)" d="M2071.22 251.737 L2075.48 251.737 L2075.48 287.756 L2071.22 287.756 L2071.22 251.737 Z" fill="#000000" fill-rule="nonzero" fill-opacity="1" /><path clip-path="url(#clip580)" d="M2106.56 273.728 L2106.56 275.811 L2086.98 275.811 Q2087.26 280.209 2089.62 282.524 Q2092 284.816 2096.24 284.816 Q2098.69 284.816 2100.98 284.214 Q2103.3 283.612 2105.57 282.409 L2105.57 286.436 Q2103.28 287.408 2100.87 287.918 Q2098.46 288.427 2095.98 288.427 Q2089.78 288.427 2086.15 284.816 Q2082.54 281.205 2082.54 275.047 Q2082.54 268.682 2085.96 264.955 Q2089.41 261.205 2095.24 261.205 Q2100.48 261.205 2103.51 264.585 Q2106.56 267.941 2106.56 273.728 M2102.3 272.478 Q2102.26 268.983 2100.34 266.899 Q2098.44 264.816 2095.29 264.816 Q2091.73 264.816 2089.57 266.83 Q2087.44 268.844 2087.12 272.501 L2102.3 272.478 Z" fill="#000000" fill-rule="nonzero" fill-opacity="1" /><path clip-path="url(#clip580)" d="M2134.27 261.83 L2124.9 274.446 L2134.76 287.756 L2129.73 287.756 L2122.19 277.571 L2114.64 287.756 L2109.62 287.756 L2119.69 274.191 L2110.48 261.83 L2115.5 261.83 L2122.37 271.066 L2129.25 261.83 L2134.27 261.83 Z" fill="#000000" fill-rule="nonzero" fill-opacity="1" /><polyline clip-path="url(#clip580)" style="stroke:#2e8b57; stroke-linecap:round; stroke-linejoin:round; stroke-width:8; stroke-opacity:1; fill:none" points="1716.83,322.316 1854.52,322.316 "/>
<path clip-path="url(#clip580)" d="M1877.47 305.036 L1906.7 305.036 L1906.7 308.971 L1894.43 308.971 L1894.43 339.596 L1889.74 339.596 L1889.74 308.971 L1877.47 308.971 L1877.47 305.036 Z" fill="#000000" fill-rule="nonzero" fill-opacity="1" /><path clip-path="url(#clip580)" d="M1919.09 309.642 L1912.75 326.841 L1925.45 326.841 L1919.09 309.642 M1916.45 305.036 L1921.75 305.036 L1934.92 339.596 L1930.06 339.596 L1926.91 330.73 L1911.33 330.73 L1908.18 339.596 L1903.25 339.596 L1916.45 305.036 Z" fill="#000000" fill-rule="nonzero" fill-opacity="1" /><path clip-path="url(#clip580)" d="M1960.68 306.17 L1960.68 310.73 Q1958.02 309.457 1955.66 308.832 Q1953.3 308.207 1951.1 308.207 Q1947.28 308.207 1945.2 309.688 Q1943.14 311.17 1943.14 313.901 Q1943.14 316.193 1944.5 317.374 Q1945.89 318.531 1949.74 319.249 L1952.56 319.827 Q1957.79 320.823 1960.27 323.346 Q1962.77 325.846 1962.77 330.059 Q1962.77 335.082 1959.39 337.674 Q1956.03 340.267 1949.53 340.267 Q1947.07 340.267 1944.3 339.711 Q1941.54 339.156 1938.58 338.068 L1938.58 333.253 Q1941.43 334.85 1944.16 335.661 Q1946.89 336.471 1949.53 336.471 Q1953.53 336.471 1955.71 334.897 Q1957.88 333.323 1957.88 330.406 Q1957.88 327.86 1956.31 326.424 Q1954.76 324.989 1951.19 324.272 L1948.35 323.716 Q1943.12 322.675 1940.78 320.452 Q1938.44 318.23 1938.44 314.272 Q1938.44 309.688 1941.66 307.05 Q1944.9 304.411 1950.57 304.411 Q1953 304.411 1955.52 304.851 Q1958.05 305.29 1960.68 306.17 Z" fill="#000000" fill-rule="nonzero" fill-opacity="1" /><path clip-path="url(#clip580)" d="M1995.94 307.698 L1995.94 312.628 Q1993.58 310.429 1990.89 309.341 Q1988.23 308.253 1985.22 308.253 Q1979.3 308.253 1976.15 311.888 Q1973 315.499 1973 322.35 Q1973 329.179 1976.15 332.813 Q1979.3 336.424 1985.22 336.424 Q1988.23 336.424 1990.89 335.336 Q1993.58 334.249 1995.94 332.049 L1995.94 336.934 Q1993.49 338.6 1990.73 339.434 Q1988 340.267 1984.94 340.267 Q1977.1 340.267 1972.58 335.475 Q1968.07 330.661 1968.07 322.35 Q1968.07 314.017 1972.58 309.226 Q1977.1 304.411 1984.94 304.411 Q1988.05 304.411 1990.78 305.244 Q1993.53 306.054 1995.94 307.698 Z" fill="#000000" fill-rule="nonzero" fill-opacity="1" /></svg>
